<svg xmlns="http://www.w3.org/2000/svg" width="120" height="120" viewBox="0 0 120 120">
  <g id="Page-1" transform="translate(-0.001 -1.062)">
    <g id="_007---Birthday-Cake" data-name="007---Birthday-Cake" transform="translate(0.001 1.062)">
      <path id="Shape" d="M30.137,7h4.137a4.137,4.137,0,0,1,4.137,4.137V25.619H26V11.137A4.137,4.137,0,0,1,30.137,7Z" transform="translate(27.795 6.42)" fill="#77cffc"/>
      <path id="Shape-2" data-name="Shape" d="M21.277,19H70.94a8.276,8.276,0,0,1,8.277,8.275V56.237H13V27.275A8.276,8.276,0,0,1,21.277,19Z" transform="translate(13.892 18.791)" fill="#fce677"/>
      <path id="Shape-3" data-name="Shape" d="M14.276,35H92.9a8.276,8.276,0,0,1,8.276,8.275V74.306H6V43.275A8.276,8.276,0,0,1,14.276,35Z" transform="translate(6.411 35.351)" fill="#fce677"/>
      <path id="Shape-4" data-name="Shape" d="M24.137,15H53.1a4.137,4.137,0,0,1,4.137,4.137v6.206H20V19.137A4.137,4.137,0,0,1,24.137,15Z" transform="translate(21.382 14.7)" fill="#fce677"/>
      <path id="Shape-5" data-name="Shape" d="M35.275,9.275a4.137,4.137,0,0,1-8.275,0C27,7,31.137,1,31.137,1S35.275,7,35.275,9.275Z" transform="translate(28.864 0.007)" fill="#fce677"/>
      <path id="Shape-6" data-name="Shape" d="M18.069,6.206A2.069,2.069,0,0,1,16,4.137V2.069a2.069,2.069,0,1,1,4.137,0V4.137A2.069,2.069,0,0,1,18.069,6.206Z" transform="translate(17.104)" fill="#fce677"/>
      <path id="Shape-7" data-name="Shape" d="M22.137,7.137H20.069a2.069,2.069,0,0,1,0-4.137h2.069a2.069,2.069,0,0,1,0,4.137Z" transform="translate(19.242 3.206)" fill="#fce677"/>
      <path id="Shape-8" data-name="Shape" d="M18.069,11.206A2.069,2.069,0,0,1,16,9.137V7.069a2.069,2.069,0,1,1,4.137,0V9.137A2.069,2.069,0,0,1,18.069,11.206Z" transform="translate(17.104 5.344)" fill="#fce677"/>
      <path id="Shape-9" data-name="Shape" d="M17.137,7.137H15.069a2.069,2.069,0,0,1,0-4.137h2.069a2.069,2.069,0,0,1,0,4.137Z" transform="translate(13.897 3.206)" fill="#fce677"/>
      <path id="Shape-10" data-name="Shape" d="M10.069,15.206A2.069,2.069,0,0,1,8,13.137V11.069a2.069,2.069,0,1,1,4.137,0v2.069A2.069,2.069,0,0,1,10.069,15.206Z" transform="translate(8.549 8.557)" fill="#fce677"/>
      <path id="Shape-11" data-name="Shape" d="M14.137,16.137H12.069a2.069,2.069,0,1,1,0-4.137h2.069a2.069,2.069,0,1,1,0,4.137Z" transform="translate(10.689 11.561)" fill="#fce677"/>
      <path id="Shape-12" data-name="Shape" d="M10.069,20.206A2.069,2.069,0,0,1,8,18.137V16.069a2.069,2.069,0,1,1,4.137,0v2.069A2.069,2.069,0,0,1,10.069,20.206Z" transform="translate(8.549 13.659)" fill="#fce677"/>
      <path id="Shape-13" data-name="Shape" d="M9.137,16.137H7.069a2.069,2.069,0,0,1,0-4.137H9.137a2.069,2.069,0,1,1,0,4.137Z" transform="translate(5.343 11.561)" fill="#fce677"/>
      <path id="Shape-14" data-name="Shape" d="M42.069,6.206A2.069,2.069,0,0,1,40,4.137V2.069a2.069,2.069,0,0,1,4.137,0V4.137A2.069,2.069,0,0,1,42.069,6.206Z" transform="translate(42.761 0.94)" fill="#fce677"/>
      <path id="Shape-15" data-name="Shape" d="M41.137,7.137H39.069a2.069,2.069,0,0,1,0-4.137h2.069a2.069,2.069,0,1,1,0,4.137Z" transform="translate(39.554 4.146)" fill="#fce677"/>
      <path id="Shape-16" data-name="Shape" d="M42.069,11.206A2.069,2.069,0,0,1,40,9.137V7.069a2.069,2.069,0,0,1,4.137,0V9.137A2.069,2.069,0,0,1,42.069,11.206Z" transform="translate(42.761 6.284)" fill="#fce677"/>
      <path id="Shape-17" data-name="Shape" d="M46.137,7.137H44.069a2.069,2.069,0,0,1,0-4.137h2.069a2.069,2.069,0,1,1,0,4.137Z" transform="translate(44.899 4.146)" fill="#fce677"/>
      <g id="Group_511" data-name="Group 511" transform="translate(12.411 17.557)">
        <path id="Shape-18" data-name="Shape" d="M50.069,15.206A2.069,2.069,0,0,1,48,13.137V11.069a2.069,2.069,0,1,1,4.137,0v2.069A2.069,2.069,0,0,1,50.069,15.206Z" transform="translate(38.905 -9)" fill="#fce677"/>
        <path id="Shape-19" data-name="Shape" d="M49.137,16.137H47.069a2.069,2.069,0,0,1,0-4.137h2.069a2.069,2.069,0,0,1,0,4.137Z" transform="translate(35.698 -5.794)" fill="#fce677"/>
        <path id="Shape-20" data-name="Shape" d="M50.069,20.206A2.069,2.069,0,0,1,48,18.137V16.069a2.069,2.069,0,1,1,4.137,0v2.069A2.069,2.069,0,0,1,50.069,20.206Z" transform="translate(38.905 -3.656)" fill="#fce677"/>
        <path id="Shape-21" data-name="Shape" d="M54.137,16.137H52.069a2.069,2.069,0,1,1,0-4.137h2.069a2.069,2.069,0,1,1,0,4.137Z" transform="translate(41.042 -5.794)" fill="#fce677"/>
        <path id="Shape-22" data-name="Shape" d="M101.18,43.275v1.552l-3.724,2.793a4.16,4.16,0,0,1-4.966,0l-3.311-2.482a4.16,4.16,0,0,0-4.966,0L80.9,47.619a4.16,4.16,0,0,1-4.966,0l-3.311-2.482a4.16,4.16,0,0,0-4.966,0l-3.311,2.482a4.16,4.16,0,0,1-4.966,0l-3.311-2.482a4.16,4.16,0,0,0-4.966,0L47.8,47.619a4.16,4.16,0,0,1-4.966,0L39.52,45.137a4.16,4.16,0,0,0-4.966,0l-3.311,2.482a4.16,4.16,0,0,1-4.966,0l-3.311-2.482a4.16,4.16,0,0,0-4.966,0L14.69,47.619a4.16,4.16,0,0,1-4.966,0L6,44.826V43.275A8.276,8.276,0,0,1,14.276,35H92.9A8.276,8.276,0,0,1,101.18,43.275Z" transform="translate(-6 17.787)" fill="#778dfc"/>
      </g>
      <path id="Shape-23" data-name="Shape" d="M101.18,40.015v12.93H6V40.015l3.724,2.793a4.16,4.16,0,0,0,4.966,0L18,40.325a4.16,4.16,0,0,1,4.966,0l3.311,2.482a4.16,4.16,0,0,0,4.966,0l3.311-2.482a4.16,4.16,0,0,1,4.966,0l3.311,2.482a4.16,4.16,0,0,0,4.966,0l3.311-2.482a4.16,4.16,0,0,1,4.966,0l3.311,2.482a4.16,4.16,0,0,0,4.966,0l3.311-2.482a4.16,4.16,0,0,1,4.966,0l3.311,2.482a4.16,4.16,0,0,0,4.966,0l3.311-2.482a4.16,4.16,0,0,1,4.966,0l3.311,2.482a4.16,4.16,0,0,0,4.966,0Z" transform="translate(6.411 40.411)" fill="#fce677"/>
      <path id="Rectangle-path" d="M6,45h95.18v4.137H6Z" transform="translate(6.411 46.249)" fill="#778dfc"/>
      <path id="Shape-24" data-name="Shape" d="M79.217,27.275l-5.794,4.344a4.16,4.16,0,0,1-4.966,0l-3.311-2.482a4.16,4.16,0,0,0-4.966,0l-3.311,2.482a4.16,4.16,0,0,1-4.966,0l-3.311-2.482a4.16,4.16,0,0,0-4.966,0l-3.311,2.482a4.16,4.16,0,0,1-4.966,0l-3.311-2.482a4.16,4.16,0,0,0-4.966,0L23.76,31.619a4.16,4.16,0,0,1-4.966,0L13,27.275A8.276,8.276,0,0,1,21.277,19H70.94A8.276,8.276,0,0,1,79.217,27.275Z" transform="translate(13.892 18.891)" fill="#778dfc"/>
      <path id="Shape-25" data-name="Shape" d="M79.217,23V35.412H13V23l5.794,4.344a4.16,4.16,0,0,0,4.966,0l3.311-2.482a4.16,4.16,0,0,1,4.966,0l3.311,2.482a4.16,4.16,0,0,0,4.966,0l3.311-2.482a4.16,4.16,0,0,1,4.966,0L51.9,27.344a4.16,4.16,0,0,0,4.966,0l3.311-2.482a4.16,4.16,0,0,1,4.966,0l3.311,2.482a4.16,4.16,0,0,0,4.966,0Z" transform="translate(13.892 23.094)" fill="#fce677"/>
      <path id="Rectangle-path-2" data-name="Rectangle-path" d="M13,28H79.217v4.137H13Z" transform="translate(13.892 28.379)" fill="#778dfc"/>
      <path id="Shape-26" data-name="Shape" d="M117.935,53H2.068a2.069,2.069,0,0,0-1.85,2.993l3.567,7.131a4.138,4.138,0,0,0,3.7,2.288H112.516a4.138,4.138,0,0,0,3.7-2.288l3.565-7.131A2.069,2.069,0,0,0,117.935,53Z" transform="translate(-0.001 54.588)" fill="#a477fc"/>
    </g>
  </g>
</svg>
