<svg xmlns="http://www.w3.org/2000/svg" width="150" height="150" viewBox="0 0 150 150">
  <g id="Calendar" transform="translate(-2 -2)">
    <path id="Path_116709" data-name="Path 116709" d="M139.5,17H127V12a10,10,0,1,0-20,0v5H87V12a10,10,0,1,0-20,0v5H47V12a10,10,0,1,0-20,0v5H14.5A12.5,12.5,0,0,0,2,29.5v100A12.5,12.5,0,0,0,14.5,142h70a2.5,2.5,0,0,0,0-5h-70A7.523,7.523,0,0,1,7,129.5V52H147V94.5a2.5,2.5,0,1,0,5,0v-65A12.5,12.5,0,0,0,139.5,17ZM112,12a5,5,0,1,1,10,0V27a5,5,0,1,1-10,0ZM72,12a5,5,0,1,1,10,0V27a5,5,0,1,1-10,0ZM32,12a5,5,0,1,1,10,0V27a5,5,0,1,1-10,0ZM147,47H7V29.5A7.523,7.523,0,0,1,14.5,22H27v5a10,10,0,1,0,20,0V22H67v5a10,10,0,1,0,20,0V22h20v5a10,10,0,1,0,20,0V22h12.5a7.523,7.523,0,0,1,7.5,7.5Z" transform="translate(0 0)" fill="#fce677"/>
    <path id="Path_116710" data-name="Path 116710" d="M42,32a5,5,0,0,0-5-5H27a5,5,0,0,0-5,5v7.5a5,5,0,0,0,5,5H37a5,5,0,0,0,5-5ZM27,39.5V32H37v7.5Z" transform="translate(30.001 37.501)" fill="#fce677"/>
    <path id="Path_116711" data-name="Path 116711" d="M30,32a5,5,0,0,0-5-5H15a5,5,0,0,0-5,5v7.5a5,5,0,0,0,5,5H25a5,5,0,0,0,5-5ZM15,39.5V32H25v7.5Z" transform="translate(11.998 37.501)" fill="#fce677"/>
    <path id="Path_116712" data-name="Path 116712" d="M61,44.5a5,5,0,0,0,5-5V32a5,5,0,0,0-5-5H51a5,5,0,0,0-5,5v7.5a5,5,0,0,0,5,5ZM51,32H61v7.5H51Z" transform="translate(66.004 37.501)" fill="#fce677"/>
    <path id="Path_116713" data-name="Path 116713" d="M42,41a5,5,0,0,0-5-5H27a5,5,0,0,0-5,5v7.5a5,5,0,0,0,5,5H37a5,5,0,0,0,5-5ZM27,48.5V41H37v7.5Z" transform="translate(30.001 51.001)" fill="#fce677"/>
    <path id="Path_116714" data-name="Path 116714" d="M30,41a5,5,0,0,0-5-5H15a5,5,0,0,0-5,5v7.5a5,5,0,0,0,5,5H25a5,5,0,0,0,5-5ZM15,48.5V41H25v7.5Z" transform="translate(11.998 51.001)" fill="#fce677"/>
    <path id="Path_116715" data-name="Path 116715" d="M37,45H27a5,5,0,0,0-5,5v7.5a5,5,0,0,0,5,5H37a5,5,0,0,0,5-5V50A5,5,0,0,0,37,45ZM27,57.5V50H37v7.5Z" transform="translate(30.001 64.501)" fill="#fce677"/>
    <path id="Path_116716" data-name="Path 116716" d="M39,44.5H49a5,5,0,0,0,5-5V32a5,5,0,0,0-5-5H39a5,5,0,0,0-5,5v7.5A5,5,0,0,0,39,44.5ZM39,32H49v7.5H39Z" transform="translate(48.001 37.501)" fill="#fce677"/>
    <path id="Path_116717" data-name="Path 116717" d="M34,48.5a5,5,0,0,0,5,5,2.5,2.5,0,1,0,0-5V41H49a2.5,2.5,0,0,0,0-5H39a5,5,0,0,0-5,5Z" transform="translate(48.001 51.001)" fill="#fce677"/>
    <path id="Path_116718" data-name="Path 116718" d="M25,45H15a5,5,0,0,0-5,5v7.5a5,5,0,0,0,5,5H25a5,5,0,0,0,5-5V50A5,5,0,0,0,25,45ZM15,57.5V50H25v7.5Z" transform="translate(11.998 64.501)" fill="#fce677"/>
    <path id="Path_116719" data-name="Path 116719" d="M68.5,36a32.5,32.5,0,1,0,32.5,32.5A32.5,32.5,0,0,0,68.5,36Zm0,59.994a27.5,27.5,0,1,1,27.5-27.5,27.5,27.5,0,0,1-27.5,27.5Z" transform="translate(51.007 51.007)" fill="#fce677"/>
    <path id="Path_116720" data-name="Path 116720" d="M74.3,45.247,54.862,64.69l-8.837-8.839a2.5,2.5,0,1,0-3.535,3.535l10.6,10.606a2.5,2.5,0,0,0,3.535,0l21.21-21.21A2.5,2.5,0,1,0,74.3,45.247Z" transform="translate(59.642 63.777)" fill="#fce677"/>
  </g>
</svg>
