<svg xmlns="http://www.w3.org/2000/svg" xmlns:xlink="http://www.w3.org/1999/xlink" width="120" height="120" viewBox="0 0 120 120">
  <defs>
    <clipPath id="clip-path">
      <rect id="Rectangle_44944" data-name="Rectangle 44944" width="120" height="120" transform="translate(1236 4615)" fill="#fff"/>
    </clipPath>
  </defs>
  <g id="Group_772" data-name="Group 772" transform="translate(-1305 -5584)">
    <g id="Mask_Group_121263" data-name="Mask Group 121263" transform="translate(69 969)" clip-path="url(#clip-path)">
      <g id="Group_528" data-name="Group 528" transform="translate(131.301 -519.094)">
        <g id="balloons" transform="translate(1118.628 5133.957)">
          <path id="Path_116444" data-name="Path 116444" d="M410.7,337.133a1.349,1.349,0,0,1-1.349-1.349V305.627a1.35,1.35,0,0,1,2.7,0v30.157a1.349,1.349,0,0,1-1.351,1.349Z" transform="translate(-335.715 -254.055)" fill="#8d59f4"/>
          <path id="Path_116445" data-name="Path 116445" d="M89,337.133a1.349,1.349,0,0,1-1.349-1.349V305.627a1.35,1.35,0,1,1,2.7,0v30.157A1.349,1.349,0,0,1,89,337.133Z" transform="translate(-71.886 -254.055)" fill="#8d59f4"/>
          <path id="Path_116446" data-name="Path 116446" d="M391.163,310.081s-6.816,7.083-5.453,9.444,9.542,2.361,10.9,0S391.163,310.081,391.163,310.081Z" transform="translate(-316.182 -258.814)" fill="#a477fc"/>
          <path id="Path_116447" data-name="Path 116447" d="M69.471,310.081s-6.816,7.083-5.453,9.444,9.542,2.361,10.9,0S69.471,310.081,69.471,310.081Z" transform="translate(-52.355 -258.814)" fill="#a477fc"/>
          <path id="Path_116448" data-name="Path 116448" d="M249.849,306.395a1.349,1.349,0,0,1-1.349-1.349V279.284a1.35,1.35,0,1,1,2.7,0v25.762a1.349,1.349,0,0,1-1.351,1.349Z" transform="translate(-203.8 -232.45)" fill="#8d59f4"/>
          <path id="Path_116449" data-name="Path 116449" d="M226.6,232.833s-7.8,8.109-6.242,10.812,10.923,2.7,12.484,0S226.6,232.833,226.6,232.833Z" transform="translate(-180.551 -195.461)" fill="#a477fc"/>
          <path id="Path_116450" data-name="Path 116450" d="M338.808,116.394c-9.453,0-17.116,7-17.116,16.457,0,12.271,13.923,22.092,17.116,22.092s17.116-9.821,17.116-22.092C355.924,123.4,348.261,116.394,338.808,116.394Z" transform="translate(-263.827 -99.967)" fill="#778dfc"/>
          <path id="Path_116451" data-name="Path 116451" d="M406.315,116.394a18.774,18.774,0,0,0-2.024.11c8.8.953,15.5,8,15.158,17C419.062,143.66,409.2,151.772,404,154.191a5.965,5.965,0,0,0,2.31.752c3.193,0,17.116-9.821,17.116-22.092C423.431,123.4,415.768,116.394,406.315,116.394Z" transform="translate(-331.333 -99.967)" fill="#77cffc"/>
          <path id="Path_116452" data-name="Path 116452" d="M17.116,116.394C7.663,116.394,0,123.4,0,132.851c0,12.271,13.923,22.092,17.116,22.092s17.116-9.821,17.116-22.092C34.232,123.4,26.569,116.394,17.116,116.394Z" transform="translate(0 -99.967)" fill="#778dfc"/>
          <path id="Path_116453" data-name="Path 116453" d="M84.622,116.394a18.771,18.771,0,0,0-2.024.11c8.8.953,15.5,8,15.158,17-.387,10.155-10.253,18.267-15.444,20.686a5.965,5.965,0,0,0,2.31.752c3.193,0,17.116-9.821,17.116-22.092C101.738,123.4,94.075,116.394,84.622,116.394Z" transform="translate(-67.506 -99.967)" fill="#77cffc"/>
          <path id="Path_116454" data-name="Path 116454" d="M153.533,25.071a13.153,13.153,0,0,0-9.706,4.427,2.661,2.661,0,0,1-3.993,0,13.154,13.154,0,0,0-9.706-4.427,13.4,13.4,0,0,0-13.338,13.6c0,13.751,16.338,27.519,25.041,27.519s25.041-13.768,25.041-27.519a13.4,13.4,0,0,0-13.339-13.6Z" transform="translate(-95.781 -25.07)" fill="#fce677"/>
          <path id="Path_116455" data-name="Path 116455" d="M247.442,25.091a13.634,13.634,0,0,1,8.392,12.674c0,13.608-16,27.231-24.767,27.512a13.1,13.1,0,0,0,4.485.933c8.7,0,25.041-13.768,25.041-27.519A13.409,13.409,0,0,0,247.442,25.091Z" transform="translate(-189.503 -25.087)" fill="#d1be68"/>
        </g>
        <g id="Group_527" data-name="Group 527" transform="translate(1104.676 5190.074)">
          <path id="Path_116409" data-name="Path 116409" d="M332.6,279.154v58.137q.867-.285,1.724-.593c.285-.1.569,1.913.853,1.807a66.548,66.548,0,0,0,6.662-2.924c.381-.193.391-1.65.768-1.85a67.165,67.165,0,0,0,18.135-14.059c.43-.471,1.223.314,1.639-.169a67.152,67.152,0,0,0,5.764-7.749v-32.6Z" transform="translate(-251.673 -257.306)" fill="#a477fc"/>
          <path id="Path_116410" data-name="Path 116410" d="M99.462,279.154H69.426v37.867a67.193,67.193,0,0,0,19.688,15.8c.368.2.737,2.568,1.109,2.757a66.569,66.569,0,0,0,6.662,2.924c.283.106.568-1.316.853-1.214q.857.308,1.724.593v-58.73Z" transform="translate(-60.385 -257.306)" fill="#a477fc"/>
          <path id="Path_116411" data-name="Path 116411" d="M49.255,311.753a67.181,67.181,0,0,0,5.764,7.749c.081.094.162-.676.243-.582q.6.683,1.209,1.35V279.154H49.255Z" transform="translate(-45.723 -257.306)" fill="#8d59f4"/>
          <path id="Path_116412" data-name="Path 116412" d="M154.953,274.616H37.685a1.366,1.366,0,0,1-1.366-1.366v-2.73a1.366,1.366,0,0,1,1.366-1.366H154.953a1.366,1.366,0,0,1,1.366,1.366v2.731a1.366,1.366,0,0,1-1.366,1.365Z" transform="translate(-36.319 -250.037)" fill="#8d59f4"/>
          <path id="Path_116413" data-name="Path 116413" d="M169.971,316.7a66.347,66.347,0,0,0,7.056,2.207c.283.071.566-1.284.85-1.216q1.634.39,3.3.7V249.154H169.971Z" transform="translate(-133.467 -235.499)" fill="#d1be68"/>
          <path id="Path_116414" data-name="Path 116414" d="M195.809,318.9q1.793.453,3.623.808c.416.081.869-1.026,1.288-.953a67.009,67.009,0,0,0,11.528,1.441,67.826,67.826,0,0,0,11.527-1.429c.442-.076.849,1.027,1.288.941a66.4,66.4,0,0,0,10.68-3.015V249.154H195.809Z" transform="translate(-152.247 -235.499)" fill="#fce677"/>
          <path id="Path_116415" data-name="Path 116415" d="M229.244,419.154h-5.3l-1,1.458h-2.092l-1-1.458h-5.3a5.462,5.462,0,0,0-5.462,5.462v18.669a67.146,67.146,0,0,0,10.767,1.2c.68.02,1.363-1.23,2.048-1.23s1.368,1.251,2.048,1.23a67.086,67.086,0,0,0,10.767-1.2V424.616a5.462,5.462,0,0,0-5.466-5.462Z" transform="translate(-161.892 -359.071)" fill="#a477fc"/>
          <path id="Path_116416" data-name="Path 116416" d="M248.5,444.48q1.02.031,2.048.031t2.048-.031V419.154h-4.1Z" transform="translate(-190.548 -359.071)" fill="#8d59f4"/>
          <circle id="Ellipse_80" data-name="Ellipse 80" cx="12.29" cy="12.29" r="12.29" transform="translate(47.71 24.786)" fill="#d9e7ec"/>
          <circle id="Ellipse_81" data-name="Ellipse 81" cx="8.193" cy="8.193" r="8.193" transform="translate(51.806 28.882)" fill="#fff"/>
          <path id="Path_116417" data-name="Path 116417" d="M195.056,200.251a4.1,4.1,0,0,0-2.79-1.1h-8.007a4.1,4.1,0,0,0-2.79,1.1l-11.5,10.694v2.278h36.585v-2.278Z" transform="translate(-133.467 -199.154)" fill="#8d59f4"/>
          <path id="Path_116418" data-name="Path 116418" d="M227.268,200.251a4.1,4.1,0,0,0-2.79-1.1H214.26a4.1,4.1,0,0,0-2.79,1.1l-11.5,10.694v2.278h38.8v-2.278Z" transform="translate(-155.273 -199.154)" fill="#a477fc"/>
          <path id="Path_116419" data-name="Path 116419" d="M206.533,244.616H151.366A1.366,1.366,0,0,1,150,243.251V240.52a1.366,1.366,0,0,1,1.366-1.366h55.167a1.366,1.366,0,0,1,1.366,1.366v2.731a1.366,1.366,0,0,1-1.366,1.365Z" transform="translate(-118.95 -228.23)" fill="#a477fc"/>
          <path id="Path_116420" data-name="Path 116420" d="M247.364,481.123h-6.02a1.366,1.366,0,0,1-1.366-1.365v-1.366a1.366,1.366,0,0,1,1.366-1.366h6.02a1.366,1.366,0,0,1,1.366,1.366v1.366a1.365,1.365,0,0,1-1.366,1.365Z" transform="translate(-184.354 -401.138)" fill="#8d59f4"/>
          <path id="Path_116421" data-name="Path 116421" d="M86.478,331.654H75.14a4.785,4.785,0,0,0-4.779,4.779v21.23q1.951,2.263,4.1,4.346c.138.134.459-.966.6-.833q1.509,1.44,3.107,2.786c.258.218.336,1.667.6,1.881q1.986,1.623,4.1,3.093c.16.111.424-.284.585-.174q1.537,1.051,3.134,2.017c.229.138.354.782.585.917q1.835,1.08,3.743,2.046a4.756,4.756,0,0,0,.354-1.8v-35.5a4.784,4.784,0,0,0-4.779-4.779Z" transform="translate(-61.065 -295.467)" fill="#8d59f4"/>
          <path id="Path_116422" data-name="Path 116422" d="M120.42,347.337V362.5a.545.545,0,0,1-.546.546h-3.211a.546.546,0,0,1-.546-.546V347.2a.546.546,0,0,1,.546-.546h3.074a.683.683,0,0,1,.683.683Z" transform="translate(-94.322 -306.371)" fill="#fce677"/>
          <path id="Path_116423" data-name="Path 116423" d="M89.118,346.654H86.044a.683.683,0,0,0-.683.683v15.157a.546.546,0,0,0,.546.546h3.211a.546.546,0,0,0,.546-.546V347.2a.546.546,0,0,0-.546-.546Z" transform="translate(-71.967 -306.371)" fill="#fce677"/>
          <path id="Path_116424" data-name="Path 116424" d="M386.023,357.664v-21.23a4.785,4.785,0,0,0-4.779-4.779H369.906a4.785,4.785,0,0,0-4.779,4.779v35.5a4.758,4.758,0,0,0,.354,1.8q1.907-.964,3.743-2.046c.257-.151.253-1.493.507-1.648q1.453-.882,2.857-1.835c.227-.154.713.879.938.723q2.109-1.469,4.1-3.093c.249-.2.416-1.4.662-1.607q1.529-1.286,2.979-2.66c.2-.185.469.621.662.434q2.144-2.08,4.1-4.346Z" transform="translate(-275.32 -295.467)" fill="#8d59f4"/>
          <g id="Group_524" data-name="Group 524" transform="translate(13.394 40.283)">
            <path id="Path_116425" data-name="Path 116425" d="M415.186,347.337V362.5a.545.545,0,0,1-.546.546h-3.211a.546.546,0,0,1-.546-.546V347.2a.546.546,0,0,1,.546-.546H414.5a.683.683,0,0,1,.686.683Z" transform="translate(-321.973 -346.654)" fill="#fce677"/>
            <path id="Path_116426" data-name="Path 116426" d="M380.81,346.654h3.074a.546.546,0,0,1,.546.546v15.294a.546.546,0,0,1-.546.546h-3.211a.546.546,0,0,1-.546-.546V347.337a.683.683,0,0,1,.683-.683Z" transform="translate(-299.617 -346.654)" fill="#fce677"/>
            <path id="Path_116427" data-name="Path 116427" d="M383.884,421.654h-3.211a.546.546,0,0,0-.546.546v14.917q2.207-1.3,4.3-2.76V422.2a.546.546,0,0,0-.543-.546Z" transform="translate(-299.617 -401.171)" fill="#fce677"/>
            <path id="Path_116428" data-name="Path 116428" d="M414.64,421.638h-3.211a.546.546,0,0,0-.546.546v9.064q2.233-1.825,4.3-3.833V422.18A.545.545,0,0,0,414.64,421.638Z" transform="translate(-321.973 -401.159)" fill="#fce677"/>
            <path id="Path_116429" data-name="Path 116429" d="M89.118,421.654H85.907a.546.546,0,0,0-.546.546v5.23q2.068,2.007,4.3,3.833V422.2a.546.546,0,0,0-.543-.546Z" transform="translate(-85.361 -401.171)" fill="#fce677"/>
            <path id="Path_116430" data-name="Path 116430" d="M119.873,421.638h-3.211a.546.546,0,0,0-.546.546v12.157q2.1,1.459,4.3,2.76V422.184a.545.545,0,0,0-.543-.546Z" transform="translate(-107.717 -401.159)" fill="#fce677"/>
          </g>
          <path id="Path_116431" data-name="Path 116431" d="M250.548,313.735a2.048,2.048,0,0,1-2.048-2.048V299.458a2.05,2.05,0,0,1,4.1,0v12.228a2.048,2.048,0,0,1-2.052,2.049Z" transform="translate(-190.548 -270.576)" fill="#596c76"/>
          <circle id="Ellipse_82" data-name="Ellipse 82" cx="2.731" cy="2.731" r="2.731" transform="translate(57.269 34.345)" fill="#9facba"/>
        </g>
      </g>
    </g>
    <text id="A" transform="translate(1326 5626)" fill="#fff" font-size="26" font-family="Lora-Bold, Lora" font-weight="700"><tspan x="0" y="0">A</tspan></text>
    <text id="Z" transform="translate(1386 5628)" fill="#fff" font-size="26" font-family="Lora-Bold, Lora" font-weight="700"><tspan x="0" y="0">Z</tspan></text>
    <text id="_2" data-name="2" transform="translate(1356 5613)" font-size="26" font-family="Lora-Bold, Lora" font-weight="700"><tspan x="0" y="0">2</tspan></text>
  </g>
</svg>
