<svg id="presentation-2" xmlns="http://www.w3.org/2000/svg" width="120" height="120" viewBox="0 0 120 120">
  <g id="Group_514" data-name="Group 514" transform="translate(72.756 3.7)">
    <ellipse id="Ellipse_66" data-name="Ellipse 66" cx="2.747" cy="1.248" rx="2.747" ry="1.248" transform="translate(14.897 14.91) rotate(-76.32)" fill="#fce677"/>
    <ellipse id="Ellipse_67" data-name="Ellipse 67" cx="2.747" cy="1.248" rx="2.747" ry="1.248" transform="translate(2.426 9.777) rotate(76.32)" fill="#fce677"/>
    <path id="Path_116359" data-name="Path 116359" d="M331.9,24.59l-.25,2.5s-.25,5.743-1.248,7.991v8.24H319.166l-.25-7.491a33.986,33.986,0,0,1-1.5-8.24,21.483,21.483,0,0,1-.749-5.993c.25-2.247,4-4.994,7.241-5.494C326.907,15.351,332.9,15.351,331.9,24.59Z" transform="translate(-315.161 -15.805)" fill="#fce677"/>
  </g>
  <path id="Path_116360" data-name="Path 116360" d="M315.958,18.69a17.607,17.607,0,0,1,0-3.746c.25-1.248.749-3.5,2-4.495a7.231,7.231,0,0,1,5.993-1.5c2.5.5,3.5.749,4.495,2s.25,1.248,1,2,.25,4.744.5,5.244h.25a23.674,23.674,0,0,0,1-3.746,11.775,11.775,0,0,0-1.748-8.49c-1.748-2.5-13.484-2-14.483,3.5a14.155,14.155,0,0,0,.749,7.491A7.982,7.982,0,0,1,315.958,18.69Z" transform="translate(-240.946 -3.458)" fill="#415a6b"/>
  <path id="Path_116361" data-name="Path 116361" d="M329.828,101.379c-3.5-1-4.495-3-4.495-3v.25l.25,6.742a19.169,19.169,0,0,0,6.992-1.748,8.944,8.944,0,0,0,4.495-5.494C336.57,99.132,333.324,102.128,329.828,101.379Z" transform="translate(-249.073 -75.131)" fill="#d1be68"/>
  <path id="Path_116362" data-name="Path 116362" d="M324.7,155.24l3.746-22.973h-7.741l-9.239,1.248,4.245,21.724Z" transform="translate(-238.453 -101.258)" fill="#ced6e0"/>
  <path id="Path_116363" data-name="Path 116363" d="M343.627,167.494V164c0-2.5,0-8.49-.25-9.988s-1.5-3.5-1.5-4v-1.5l-1.748-.25-.25,2a22.647,22.647,0,0,0-1.5,4c-.25,2.247-.25,9.239-.25,9.239l2,4.245h3.5Z" transform="translate(-258.879 -113.508)" fill="#f05540"/>
  <path id="Path_116364" data-name="Path 116364" d="M339.2,133.79s1.748,3.246,1.748,4a4.959,4.959,0,0,1,2,0s1.748-3,2.747-3.5v-.749C345.692,132.791,340.2,131.043,339.2,133.79Z" transform="translate(-259.695 -101.29)" fill="#f3705a"/>
  <path id="Path_116365" data-name="Path 116365" d="M356.676,113.067a4.214,4.214,0,0,1-1,1.748,36.033,36.033,0,0,1-4.745,2.747l5.244,4.994,2.247-6.243S357.426,113.566,356.676,113.067Z" transform="translate(-268.677 -86.564)" fill="#f3f3f3"/>
  <path id="Path_116366" data-name="Path 116366" d="M426.4,164.226c-.749-4.744-1.748-9.239-2-9.988-.749-1.248-1.248-4.994-2.247-7.491s-2.5-2.747-2.5-2.747l-5.244,2.5c-1.748,4.745,1.748,15.232,2.5,17.729Z" transform="translate(-316.891 -110.242)" fill="#415a6b"/>
  <g id="Group_515" data-name="Group 515" transform="translate(62.068 29.509)">
    <path id="Path_116367" data-name="Path 116367" d="M269.028,151.972H284.01a37.6,37.6,0,0,0-2.747-5.494c-2.247-3.746-4.245-16.231-4.245-16.231L276.269,128s-5.494,2.747-7.741,3.746-4,1.748-4,1.748a127.773,127.773,0,0,1,3.746,13.484C269.028,147.727,269.028,149.724,269.028,151.972Z" transform="translate(-264.533 -127.501)" fill="#344a5e"/>
    <path id="Path_116368" data-name="Path 116368" d="M375.948,150.338c-2.5-8.49,2-19.976,2-19.976-4.245-1-11.487-4.495-11.487-4.495-.25,4.744-2.747,15.731-2.747,15.731a51.952,51.952,0,0,0-4.245,8.74Z" transform="translate(-337.243 -125.867)" fill="#344a5e"/>
  </g>
  <g id="Group_516" data-name="Group 516" transform="translate(58.029 27.259)">
    <path id="Path_116369" data-name="Path 116369" d="M361.646,131.748c-.5,2.5-2,7.491-3.246,11.237h1.748a53.6,53.6,0,0,1,4-7.741c1.748-3,3-7.741,3.5-9.739a11.813,11.813,0,0,0,.749-3l-2.247-1.748h1.248s-1.248-1.5-1.748-2-1.748-1.248-2-1.748-.25-.5-.749-.749a26,26,0,0,1,.25,2.747C362.895,120.012,362.645,128,361.646,131.748Z" transform="translate(-332.43 -116.266)" fill="#415a6b"/>
    <path id="Path_116370" data-name="Path 116370" d="M303.865,129.319c1,2.247,5.494,10.737,7.741,14.483h1.748c0-.25-.25-.5-.25-.749-1.248-2.247-4.994-15.232-5.244-17.48s-.5-8.24-.5-8.24c-1.248,2-3.746,2.747-4.245,4.495h1l-2.247,1.5A51.356,51.356,0,0,0,303.865,129.319Z" transform="translate(-289.133 -117.083)" fill="#415a6b"/>
    <path id="Path_116371" data-name="Path 116371" d="M256.705,169.1c-.25-1.748-.749-3.5-1-5.244-1-4.495-3.746-13.484-3.746-13.484s-.749-.25-1.5,2a99.221,99.221,0,0,0-2.747,12.985c0,.5-.25,2-.25,4h9.239Z" transform="translate(-247.466 -142.382)" fill="#415a6b"/>
  </g>
  <path id="Path_116372" data-name="Path 116372" d="M323.132,115.2a40.96,40.96,0,0,0,5.743,4,24.23,24.23,0,0,0-4.495,4.994,28.563,28.563,0,0,0-1.5-3.5,3.862,3.862,0,0,1-.749-1.5C322.133,118.946,322.383,116.2,323.132,115.2Z" transform="translate(-246.628 -88.197)" fill="#f3f3f3"/>
  <g id="Group_517" data-name="Group 517" transform="translate(58.029 27.259)">
    <path id="Path_116373" data-name="Path 116373" d="M361.646,131.748c-.5,2.5-2,7.491-3.246,11.237h1.748a53.6,53.6,0,0,1,4-7.741c1.748-3,3-7.741,3.5-9.739a11.813,11.813,0,0,0,.749-3l-2.247-1.748h1.248s-1.248-1.5-1.748-2-1.748-1.248-2-1.748-.25-.5-.749-.749a26,26,0,0,1,.25,2.747C362.895,120.012,362.645,128,361.646,131.748Z" transform="translate(-332.43 -116.266)" fill="#415a6b"/>
    <path id="Path_116374" data-name="Path 116374" d="M303.865,129.319c1,2.247,5.494,10.737,7.741,14.483h1.748c0-.25-.25-.5-.25-.749-1.248-2.247-4.994-15.232-5.244-17.48s-.5-8.24-.5-8.24c-1.248,2-3.746,2.747-4.245,4.495h1l-2.247,1.5A51.356,51.356,0,0,0,303.865,129.319Z" transform="translate(-289.133 -117.083)" fill="#415a6b"/>
    <path id="Path_116375" data-name="Path 116375" d="M256.705,169.1c-.25-1.748-.749-3.5-1-5.244-1-4.495-3.746-13.484-3.746-13.484s-.749-.25-1.5,2a99.221,99.221,0,0,0-2.747,12.985c0,.5-.25,2-.25,4h9.239Z" transform="translate(-247.466 -142.382)" fill="#415a6b"/>
  </g>
  <path id="Path_116376" data-name="Path 116376" d="M268.635,213.472H203.462l-4-9.739h73.164Z" transform="translate(-152.631 -155.978)" fill="#d1be68"/>
  <rect id="Rectangle_44941" data-name="Rectangle 44941" width="53.437" height="59.93" transform="translate(56.575 57.573)" fill="#fce677"/>
  <path id="Path_116377" data-name="Path 116377" d="M318.261,295.06v30.964a6.076,6.076,0,0,0-5.993,5.993H290.793a6.076,6.076,0,0,0-5.993-5.993V295.06a6.076,6.076,0,0,0,5.993-5.993h21.475A5.767,5.767,0,0,0,318.261,295.06Z" transform="translate(-218.02 -221.256)" fill="#fce677"/>
  <g id="Group_518" data-name="Group 518" transform="translate(13.143 84.635)">
    <path id="Path_116378" data-name="Path 116378" d="M69.833,394.6a53.236,53.236,0,0,1-.25,5.494l-.25,1.5,14.733-1.5a13.6,13.6,0,0,1-.749-4.245V393.6Z" transform="translate(-66.245 -385.98)" fill="#d1be68"/>
    <ellipse id="Ellipse_68" data-name="Ellipse 68" cx="3.496" cy="1.498" rx="3.496" ry="1.498" transform="translate(17.219 6.952) rotate(-83.875)" fill="#d1be68"/>
    <ellipse id="Ellipse_69" data-name="Ellipse 69" cx="3.496" cy="1.498" rx="3.496" ry="1.498" transform="translate(2.979 0.191) rotate(83.875)" fill="#d1be68"/>
  </g>
  <path id="Path_116379" data-name="Path 116379" d="M47.694,450.728l-2.5-7.241A12.767,12.767,0,0,0,37.456,436c-2-.749-4-1.5-4.495-2.247-.5-.5-.749-1.248-1.248-1.748H15.981a10.579,10.579,0,0,1-1.248,1.748A10.679,10.679,0,0,1,10.238,436,12.767,12.767,0,0,0,2.5,443.487L0,450.728Z" transform="translate(0 -330.728)" fill="#a477fc"/>
  <path id="Path_116380" data-name="Path 116380" d="M80.231,416.431a12.245,12.245,0,0,0,1,2.5,7.069,7.069,0,0,1,.749,1.5,2.972,2.972,0,0,0-2-1,63.6,63.6,0,0,0-6.992,0,63.6,63.6,0,0,0-6.992,0,2.972,2.972,0,0,0-2,1,7.068,7.068,0,0,1,.749-1.5,12.26,12.26,0,0,0,1-2.5C65.5,414.434,80.231,414.434,80.231,416.431Z" transform="translate(-49.018 -317.657)" fill="#77cffc"/>
  <path id="Path_116381" data-name="Path 116381" d="M61.619,334.144c0,4.495,15.232,4.495,15.232,0,.25-2,.5-4.994,1.248-6.243,1-1.748,1.748-13.234-8.989-13.234s-9.988,11.486-8.989,13.234C60.87,328.9,61.369,332.146,61.619,334.144Z" transform="translate(-45.638 -240.897)" fill="#415a6b"/>
  <g id="Group_519" data-name="Group 519" transform="translate(49.192 84.619)">
    <path id="Path_116382" data-name="Path 116382" d="M224.5,394.6a53.236,53.236,0,0,1-.25,5.494l-.25,1.5,14.733-1.5a13.6,13.6,0,0,1-.749-4.245V393.6Z" transform="translate(-220.683 -385.964)" fill="#d1be68"/>
    <ellipse id="Ellipse_70" data-name="Ellipse 70" cx="3.496" cy="1.498" rx="3.496" ry="1.498" transform="translate(17.198 6.952) rotate(-83.875)" fill="#d1be68"/>
    <ellipse id="Ellipse_71" data-name="Ellipse 71" cx="3.496" cy="1.498" rx="3.496" ry="1.498" transform="translate(2.979 0.228) rotate(83.875)" fill="#d1be68"/>
  </g>
  <path id="Path_116383" data-name="Path 116383" d="M201.294,450.728l-2.5-7.241A12.767,12.767,0,0,0,191.056,436c-2-.749-4-1.5-4.495-2.247-.5-.5-.749-1.248-1.248-1.748H169.581a7.475,7.475,0,0,1-5.743,4,12.768,12.768,0,0,0-7.741,7.491l-2.5,7.241Z" transform="translate(-117.572 -330.728)" fill="#77cffc"/>
  <path id="Path_116384" data-name="Path 116384" d="M233.831,416.431a12.246,12.246,0,0,0,1,2.5,7.069,7.069,0,0,1,.749,1.5,2.972,2.972,0,0,0-2-1,63.6,63.6,0,0,0-6.992,0,63.6,63.6,0,0,0-6.992,0,2.972,2.972,0,0,0-2,1,7.068,7.068,0,0,1,.749-1.5,12.259,12.259,0,0,0,1-2.5C219.348,414.434,233.831,414.434,233.831,416.431Z" transform="translate(-166.589 -317.657)" fill="#778dfc"/>
  <path id="Path_116385" data-name="Path 116385" d="M215.219,334.144c0,4.495,15.232,4.495,15.232,0,.25-2,.5-4.994,1.248-6.243,1-1.748,1.748-13.234-8.989-13.234s-9.988,11.487-8.989,13.234C214.719,328.9,215.219,332.146,215.219,334.144Z" transform="translate(-163.21 -240.897)" fill="#415a6b"/>
  <g id="Group_520" data-name="Group 520" transform="translate(85.481 84.631)">
    <path id="Path_116386" data-name="Path 116386" d="M378.1,394.6a53.236,53.236,0,0,1-.25,5.494l-.25,1.5,14.733-1.5a13.6,13.6,0,0,1-.749-4.245V393.6Z" transform="translate(-374.543 -385.976)" fill="#d1be68"/>
    <ellipse id="Ellipse_72" data-name="Ellipse 72" cx="3.496" cy="1.498" rx="3.496" ry="1.498" transform="translate(17.188 6.952) rotate(-83.875)" fill="#d1be68"/>
    <ellipse id="Ellipse_73" data-name="Ellipse 73" cx="3.496" cy="1.498" rx="3.496" ry="1.498" transform="translate(2.979 0.192) rotate(83.875)" fill="#d1be68"/>
  </g>
  <path id="Path_116387" data-name="Path 116387" d="M355.961,450.728l-2.5-7.241A12.767,12.767,0,0,0,345.723,436c-2-.749-4-1.5-4.495-2.247-.5-.5-.749-1.248-1.248-1.748H324.248a7.476,7.476,0,0,1-5.743,4,12.768,12.768,0,0,0-7.741,7.491l-2.5,7.241Z" transform="translate(-235.961 -330.728)" fill="#778dfc"/>
  <g id="Group_521" data-name="Group 521" transform="translate(86.255 73.804)">
    <path id="Path_116388" data-name="Path 116388" d="M388.5,416.431a12.245,12.245,0,0,0,1,2.5,7.069,7.069,0,0,1,.749,1.5,2.972,2.972,0,0,0-2-1,63.6,63.6,0,0,0-6.992,0,63.6,63.6,0,0,0-6.992,0,2.972,2.972,0,0,0-2,1,7.067,7.067,0,0,1,.749-1.5,12.26,12.26,0,0,0,1-2.5C373.765,414.434,388.5,414.434,388.5,416.431Z" transform="translate(-371.234 -391.461)" fill="#77cffc"/>
    <path id="Path_116389" data-name="Path 116389" d="M369.885,334.144c0,4.495,15.232,4.495,15.232,0,.25-2,.5-4.994,1.248-6.243,1-1.748,1.748-13.234-8.989-13.234s-9.988,11.487-8.989,13.234C369.386,328.9,369.635,332.146,369.885,334.144Z" transform="translate(-367.853 -314.667)" fill="#415a6b"/>
  </g>
  <path id="Path_116390" data-name="Path 116390" d="M46.7,4.994V28.716A5.009,5.009,0,0,1,41.7,33.71H40.452v9.239L23.472,33.71H4.994A5.009,5.009,0,0,1,0,28.716V4.994A5.009,5.009,0,0,1,4.994,0H41.7A5.009,5.009,0,0,1,46.7,4.994Z" fill="#fce677"/>
  <g id="Group_522" data-name="Group 522" transform="translate(6.492 12.735)">
    <circle id="Ellipse_74" data-name="Ellipse 74" cx="3.995" cy="3.995" r="3.995"/>
    <circle id="Ellipse_75" data-name="Ellipse 75" cx="3.995" cy="3.995" r="3.995" transform="translate(12.985)"/>
    <circle id="Ellipse_76" data-name="Ellipse 76" cx="3.995" cy="3.995" r="3.995" transform="translate(25.72)"/>
  </g>
</svg>
