<svg xmlns="http://www.w3.org/2000/svg" width="120" height="120" viewBox="0 0 120 120">
  <g id="family-6" transform="translate(-20.605 -26.657)">
    <path id="Path_116684" data-name="Path 116684" d="M30.236,51.744A1.839,1.839,0,1,0,28.8,48.36l-2.963,1.268a1.839,1.839,0,0,0,1.44,3.384ZM46.96,58.1l-1.268-2.964a1.839,1.839,0,1,0-3.384,1.44l1.268,2.963A1.839,1.839,0,0,0,46.96,58.1Zm10.6-7.2-6.973-2.794a1.838,1.838,0,0,0-1.368,3.413l6.973,2.794A1.838,1.838,0,1,0,57.56,50.9ZM52.048,38.411l-2.964,1.268a1.839,1.839,0,1,0,1.44,3.384L53.488,41.8a1.839,1.839,0,0,0-1.44-3.384Zm-7.2-10.6-2.794,6.973a1.838,1.838,0,0,0,3.413,1.368l2.794-6.973a1.838,1.838,0,0,0-3.413-1.368ZM32.36,33.323l1.268,2.964a1.839,1.839,0,1,0,3.384-1.44l-1.268-2.964a1.839,1.839,0,0,0-3.384,1.44Zm-10.6,7.2,6.973,2.794A1.838,1.838,0,0,0,30.1,39.9l-6.973-2.794a1.838,1.838,0,0,0-1.368,3.413Z" transform="translate(0 0)" fill="#fce677" fill-rule="evenodd"/>
    <path id="Path_116685" data-name="Path 116685" d="M393.514,377.345a2.736,2.736,0,0,1,2.728,2.728v19.613a2.728,2.728,0,0,1-5.456,0V380.073A2.736,2.736,0,0,1,393.514,377.345Z" transform="translate(-273.319 -255.757)" fill="#fcd4a9" fill-rule="evenodd"/>
    <path id="Path_116686" data-name="Path 116686" d="M407.507,381.149a2.714,2.714,0,0,1,.627,1.735V402.5a2.714,2.714,0,0,1-.627,1.735,2.714,2.714,0,0,1-.627-1.735V382.884A2.716,2.716,0,0,1,407.507,381.149Z" transform="translate(-285.211 -258.568)" fill="#f0b16e" fill-rule="evenodd"/>
    <path id="Path_116687" data-name="Path 116687" d="M372.621,377.345a2.736,2.736,0,0,0-2.728,2.728v19.613a2.728,2.728,0,0,0,5.456,0V380.073A2.736,2.736,0,0,0,372.621,377.345Z" transform="translate(-257.921 -255.757)" fill="#fcd4a9" fill-rule="evenodd"/>
    <path id="Path_116688" data-name="Path 116688" d="M385.1,403.939a2.722,2.722,0,0,0,.887-2.008V382.319a1.17,1.17,0,1,0-1.7.074V402A2.72,2.72,0,0,0,385.1,403.939Z" transform="translate(-268.56 -258.003)" fill="#f0b16e" fill-rule="evenodd"/>
    <path id="Path_116689" data-name="Path 116689" d="M64.809,104.275,56.39,145.2l-3.6-.734,8.419-40.929Z" transform="translate(-23.78 -55.909)" fill="#d1be68" fill-rule="evenodd"/>
    <path id="Path_116690" data-name="Path 116690" d="M423.249,82.494a1.838,1.838,0,1,1,2.578,2.621c-6.38,6.257-7.765,13.664-1.091,20.486q.483.494.955.926a15.3,15.3,0,0,1,6.591,11.283c.384,4.663-1.3,9.643-4.264,14.391a1.84,1.84,0,0,1-3.125-1.944c2.563-4.11,4.031-8.327,3.717-12.145a11.79,11.79,0,0,0-5.166-8.677v0l-1.33-1.255C413.992,99.874,415.437,90.137,423.249,82.494Z" transform="translate(-292.442 -40.867)" fill="#77cffc" fill-rule="evenodd"/>
    <path id="Path_116691" data-name="Path 116691" d="M281.755,97.109a10.011,10.011,0,0,1,7.706,8.217,10.011,10.011,0,0,1,7.706-8.217,10.011,10.011,0,0,1-7.706-8.216A10.011,10.011,0,0,1,281.755,97.109Z" transform="translate(-192.828 -45.984)" fill="#778dfc" fill-rule="evenodd"/>
    <path id="Path_116692" data-name="Path 116692" d="M299.048,111.166a11.9,11.9,0,0,1,3.19,3.249,11.891,11.891,0,0,1,3.19-3.249,11.892,11.892,0,0,1-3.19-3.249A11.9,11.9,0,0,1,299.048,111.166Z" transform="translate(-205.607 -59.394)" fill="#77cffc" fill-rule="evenodd"/>
    <path id="Path_116693" data-name="Path 116693" d="M198.5,62.853a1.843,1.843,0,0,1,2.606-2.607l2.03,2.03a1.843,1.843,0,1,1-2.606,2.607Zm2.03,5.831a1.843,1.843,0,0,1,2.606,2.606l-2.03,2.03a1.843,1.843,0,0,1-2.606-2.606Zm8.438-8.438a1.843,1.843,0,0,1,2.607,2.606l-2.03,2.03a1.843,1.843,0,1,1-2.607-2.606Zm-2.03,11.044a1.843,1.843,0,1,1,2.606-2.606l2.03,2.03a1.843,1.843,0,0,1-2.606,2.606Z" transform="translate(-130.955 -24.42)" fill="#77cffc" fill-rule="evenodd"/>
    <path id="Path_116694" data-name="Path 116694" d="M212.907,321.771l-12.714,6.875a7.1,7.1,0,0,1-3.476,1.035,5.773,5.773,0,0,1-3.476-1.035l-11.756-8.571a5.788,5.788,0,0,0-3.528-1.035c-1.607,0-2.408,1.288-1.7,1.957l11.114,10.537c2.782,2.637,3.579,5.722,2.291,8.868l-6.391,15.615c-.43,1.051.777,2.2,2.5,2.2a3.438,3.438,0,0,0,2.895-1.275l6.9-10.139a1.569,1.569,0,0,1,2.317,0l6.9,10.139a3.678,3.678,0,0,0,4.912.6,1.306,1.306,0,0,0,.479-1.52L203.775,340.4c-1.288-3.146-.8-6.6,2.291-8.868l12.073-8.842C219.1,321.987,217.553,319.259,212.907,321.771Z" transform="translate(-114.711 -212.678)" fill="#a477fc" fill-rule="evenodd"/>
    <path id="Path_116695" data-name="Path 116695" d="M242.152,310.155a4.663,4.663,0,1,1-4.663,4.663,4.663,4.663,0,0,1,4.663-4.663Z" transform="translate(-160.148 -207.153)" fill="#f0b16e" fill-rule="evenodd"/>
    <path id="Path_116696" data-name="Path 116696" d="M241.138,319.683a4.663,4.663,0,1,1,3.649-4.552A4.664,4.664,0,0,1,241.138,319.683Z" transform="translate(-160.15 -207.469)" fill="#fcd4a9" fill-rule="evenodd"/>
    <path id="Path_116697" data-name="Path 116697" d="M71.4,262.1v12.759a8.315,8.315,0,0,0,.484,2.556l6.13,19.892c1.57,5.1-4.894,4.762-5.667,2.224L66.553,280.51c-.6-1.983-3.958-1.983-4.562,0L56.2,299.536c-.772,2.538-7.237,2.872-5.667-2.224l6.13-19.891a8.308,8.308,0,0,0,.484-2.556v-9.509a6.757,6.757,0,0,0-2.074-4.971L41.992,247.434a3.044,3.044,0,1,1,4.282-4.326l7.818,7.738a6.755,6.755,0,0,0,4.921,2.024h9.469a6.008,6.008,0,0,1,3.827,1.574l12.448,9.9a2.947,2.947,0,0,1,.022,4.3,3.249,3.249,0,0,1-4.3.022Z" transform="translate(-15.138 -155.926)" fill="#e8d471" fill-rule="evenodd"/>
    <path id="Path_116698" data-name="Path 116698" d="M71.733,262.1v12.759a8.315,8.315,0,0,0,.484,2.556l6.273,20.448c-.728,2.651-5.178,2.051-5.81-.027L66.89,278.815c-.6-1.983-3.958-1.983-4.562,0l-5.79,19.025c-.632,2.078-5.082,2.678-5.81.027L57,277.42a10.587,10.587,0,0,0,.484-4.252v-9.509a6.757,6.757,0,0,0-2.074-4.971L42.329,245.739a1.491,1.491,0,0,1-.022-2.609,3.053,3.053,0,0,1,4.3-.022l7.818,7.738a6.755,6.755,0,0,0,4.921,2.024h9.469a6.008,6.008,0,0,1,3.827,1.574l12.448,9.9a2.456,2.456,0,0,1,.823,1.222,3.21,3.21,0,0,1-.8,1.386,3.249,3.249,0,0,1-4.3.022l-9.078-6.565v1.7Z" transform="translate(-15.474 -155.926)" fill="#fce677" fill-rule="evenodd"/>
    <path id="Path_116699" data-name="Path 116699" d="M107.243,226.946A6.241,6.241,0,1,1,101,233.187a6.241,6.241,0,0,1,6.241-6.241Zm68.127,0a6.241,6.241,0,1,1-6.241,6.241,6.241,6.241,0,0,1,6.241-6.241Z" transform="translate(-59.298 -146.303)" fill="#f0b16e" fill-rule="evenodd"/>
    <path id="Path_116700" data-name="Path 116700" d="M105.668,239.8a6.238,6.238,0,0,1,0-12.075,6.238,6.238,0,0,1,0,12.075Zm68.3-12.075a6.238,6.238,0,0,1,0,12.075,6.238,6.238,0,0,1,0-12.075Z" transform="translate(-59.401 -146.878)" fill="#fcd4a9" fill-rule="evenodd"/>
    <path id="Path_116701" data-name="Path 116701" d="M323.939,262.106v6.212l-4.862,15.612h24.911l-5.8-15.331v-3.243a6.757,6.757,0,0,1,2.074-4.971l13.082-12.949a3.044,3.044,0,1,0-4.283-4.326l-7.817,7.738a6.755,6.755,0,0,1-4.921,2.024h-9.469a5.89,5.89,0,0,0-3.827,1.574l-12.079,9.9a2.96,2.96,0,0,0-.022,4.3,3.22,3.22,0,0,0,4.3.022Z" transform="translate(-213.636 -156.762)" fill="#e8d471" fill-rule="evenodd"/>
    <path id="Path_116702" data-name="Path 116702" d="M323.94,263.556v6.212l-4.862,15.612H340.6l-5.8-15.331v-3.243a6.758,6.758,0,0,1,2.074-4.971l13.082-12.949a2.659,2.659,0,1,0-.891-4.326l-7.817,7.738a6.755,6.755,0,0,1-4.921,2.024h-9.469a5.89,5.89,0,0,0-3.827,1.574l-12.079,9.9a2.994,2.994,0,0,0,.392,4.652,4.333,4.333,0,0,0,.5-.325l8.709-6.565A3.444,3.444,0,0,1,323.94,263.556Z" transform="translate(-213.637 -158.207)" fill="#fce677" fill-rule="evenodd"/>
    <circle id="Ellipse_126" data-name="Ellipse 126" cx="11.398" cy="11.398" r="11.398" transform="translate(111.435 31.925) rotate(-10.894)" fill="#77cffc"/>
    <path id="Path_116703" data-name="Path 116703" d="M385.435,60.641A11.4,11.4,0,1,1,395.727,49.3,11.4,11.4,0,0,1,385.435,60.641Z" transform="translate(-261.761 -8.346)" fill="#fce677" fill-rule="evenodd"/>
    <path id="Path_116704" data-name="Path 116704" d="M417.559,76.178a1.843,1.843,0,0,1,3.687,0,7.672,7.672,0,0,1-7.672,7.672,1.843,1.843,0,0,1,0-3.687A3.984,3.984,0,0,0,417.559,76.178Z" transform="translate(-288.795 -35.228)" fill="#d1be68" fill-rule="evenodd"/>
    <path id="Path_116705" data-name="Path 116705" d="M228.44,175.1a7.357,7.357,0,0,1,0,10.374l-10.995,10.995a.569.569,0,0,1-.8,0l-10.995-10.995a7.357,7.357,0,0,1,0-10.374c3.742-3.742,8.117-2.257,11.4,1.023C220.324,172.845,224.7,171.361,228.44,175.1Z" transform="translate(-135.04 -106.675)" fill="#d1be68" fill-rule="evenodd"/>
    <path id="Path_116706" data-name="Path 116706" d="M83.154,83.727a4.235,4.235,0,1,1-5.506,2.356A4.235,4.235,0,0,1,83.154,83.727Z" transform="translate(-41.921 -41.942)" fill="#e33f65" fill-rule="evenodd"/>
    <path id="Path_116707" data-name="Path 116707" d="M80.436,92.184a4.236,4.236,0,0,1-2.788-5.653,4.228,4.228,0,0,1,2.789-2.5,4.235,4.235,0,0,1,0,8.156Z" transform="translate(-41.922 -42.39)" fill="#fa6e85" fill-rule="evenodd"/>
    <path id="Path_116708" data-name="Path 116708" d="M239.926,193.563a4.217,4.217,0,0,1,0,5.946l-6.3,6.3a.326.326,0,0,1-.461,0l-6.3-6.3a4.217,4.217,0,0,1,0-5.946c2.144-2.144,4.652-1.294,6.532.586C235.273,192.269,237.781,191.419,239.926,193.563Z" transform="translate(-151.39 -120.98)" fill="#fce677" fill-rule="evenodd"/>
  </g>
</svg>
