<svg xmlns="http://www.w3.org/2000/svg" width="114.855" height="141.122" viewBox="0 0 114.855 141.122">
  <g id="Group_462" data-name="Group 462" transform="translate(-1404 -4079.06)">
    <path id="rupee" d="M30.306,8.419V4H6V8.419h7.734a6.614,6.614,0,0,1,6.22,4.419H6v4.419H19.954a6.616,6.616,0,0,1-6.22,4.419H6v5.334L18.343,39.354h6.249L11.334,26.1h2.4a11.064,11.064,0,0,0,10.823-8.839h5.75V12.839h-5.75a10.9,10.9,0,0,0-2.042-4.419Z" transform="translate(1440.844 4104.651)" fill="#fce677"/>
    <path id="search" d="M73.438,64.85,53.776,45.188a29.2,29.2,0,1,0-8.588,8.588L64.849,73.437a6.073,6.073,0,0,0,8.588-8.588Zm-62.8-17a26.349,26.349,0,1,1,18.61,7.7,26.349,26.349,0,0,1-18.61-7.7ZM71.36,71.36a3.148,3.148,0,0,1-4.432,0L47.6,52.029A29.287,29.287,0,0,0,52.029,47.6L71.36,66.927A3.138,3.138,0,0,1,71.36,71.36Z" transform="translate(1418.903 4110.846) rotate(-25)" fill="#fce677"/>
    <g id="hand-shake" transform="translate(1404 4158.172)">
      <g id="Group_447" data-name="Group 447" transform="translate(14.465 4.39)">
        <g id="Group_446" data-name="Group 446" transform="translate(0 0)">
          <path id="Path_116188" data-name="Path 116188" d="M138.518,156.786c-1.947-4.06-8.913-9.694-15.643-15.139-3.754-3.034-7.3-5.9-9.562-8.165a2.066,2.066,0,0,0-2.162-.484c-1.393.5-2.253.893-2.931,1.195a6.836,6.836,0,0,1-2.774.761,2.066,2.066,0,0,0-1.513.905c-2.923,4.37-5.949,4-7.971,3.32-.645-.215-.761-.492-.823-.757-.434-1.815,1.745-6.04,4.568-8.863,6.718-6.722,10.182-8.4,17.5-5.135,8.3,3.712,16.619,6.619,16.7,6.648a2.068,2.068,0,0,0,1.36-3.907c-.083-.029-8.235-2.877-16.371-6.519-9.479-4.237-14.68-1.447-22.109,5.986-2.828,2.828-6.668,8.549-5.676,12.745a5.113,5.113,0,0,0,3.551,3.725c4.684,1.546,8.958.066,12.142-4.159a10.436,10.436,0,0,0,3.1-.984c.389-.174.843-.376,1.447-.62,2.365,2.22,5.556,4.8,8.917,7.52,6.077,4.915,12.969,10.488,14.519,13.713a2.422,2.422,0,0,1-.616,3.1,2.278,2.278,0,0,1-2.546.5A2.066,2.066,0,0,0,128.4,164.1a2.5,2.5,0,0,1-1.583,2.328,3.172,3.172,0,0,1-3.221.074,2.066,2.066,0,0,0-3.469,1.319,3.928,3.928,0,0,1-2.439,3.167,2.18,2.18,0,0,1-2.373-.368,2.091,2.091,0,0,0-1.889-.48,2.064,2.064,0,0,0-1.451,1.3c-.078.207-.256.7-2.191.7a11.9,11.9,0,0,1-5.064-1.732c-1.451-.955-10.55-7.743-18.409-14.325-1.1-.93-3.014-2.923-4.7-4.684-1.5-1.563-2.865-2.981-3.568-3.576a2.068,2.068,0,1,0-2.671,3.158c.641.542,1.881,1.852,3.249,3.278,1.844,1.926,3.75,3.919,5.031,4.994,7.7,6.445,16.95,13.4,18.793,14.614a15.859,15.859,0,0,0,7.338,2.406,7.114,7.114,0,0,0,4.692-1.381,6.434,6.434,0,0,0,4.7-.05,8.143,8.143,0,0,0,4.3-3.973,7.994,7.994,0,0,0,5.188-.748,7.014,7.014,0,0,0,3.452-3.6,6.76,6.76,0,0,0,4.742-1.7A6.572,6.572,0,0,0,138.518,156.786Z" transform="translate(-74.642 -118.658)" fill="#fce677"/>
        </g>
      </g>
      <g id="Group_449" data-name="Group 449" transform="translate(20.67 8.267)">
        <g id="Group_448" data-name="Group 448" transform="translate(0 0)">
          <path id="Path_116189" data-name="Path 116189" d="M127.336,138.663h-18.6a2.067,2.067,0,1,0,0,4.134h18.6a2.067,2.067,0,1,0,0-4.134Z" transform="translate(-106.666 -138.663)" fill="#fce677"/>
        </g>
      </g>
      <g id="Group_451" data-name="Group 451" transform="translate(74.57 37.201)">
        <g id="Group_450" data-name="Group 450" transform="translate(0 0)">
          <path id="Path_116190" data-name="Path 116190" d="M394.637,288.895a2.062,2.062,0,0,0-2.869-.562l-6.044,4.06a2.067,2.067,0,0,0,2.307,3.431l6.044-4.06A2.069,2.069,0,0,0,394.637,288.895Z" transform="translate(-384.811 -287.977)" fill="#fce677"/>
        </g>
      </g>
      <g id="Group_453" data-name="Group 453" transform="translate(55.813 35.136)">
        <g id="Group_452" data-name="Group 452" transform="translate(0 0)">
          <path id="Path_116191" data-name="Path 116191" d="M303.767,290.164c-1.48-1.166-8.1-7.941-12.191-12.208a2.067,2.067,0,1,0-2.985,2.861c1.063,1.108,10.434,10.877,12.613,12.6a2.059,2.059,0,0,0,1.277.442,2.089,2.089,0,0,0,1.629-.79A2.066,2.066,0,0,0,303.767,290.164Z" transform="translate(-288.016 -277.317)" fill="#fce677"/>
        </g>
      </g>
      <g id="Group_455" data-name="Group 455" transform="translate(49.61 41.341)">
        <g id="Group_454" data-name="Group 454">
          <path id="Path_116192" data-name="Path 116192" d="M269.7,320.126c-2.476-1.98-8.7-8.591-10.1-10.12a2.069,2.069,0,1,0-3.047,2.8c.074.078,7.5,8.095,10.567,10.55a2.068,2.068,0,0,0,2.584-3.229Z" transform="translate(-256.005 -309.337)" fill="#fce677"/>
        </g>
      </g>
      <g id="Group_457" data-name="Group 457" transform="translate(41.343 45.47)">
        <g id="Group_456" data-name="Group 456" transform="translate(0 0)">
          <path id="Path_116193" data-name="Path 116193" d="M227.079,341.467c-2.948-2.484-8.979-8.9-10.157-10.166a2.068,2.068,0,1,0-3.022,2.824c1.7,1.815,7.466,7.933,10.513,10.5a2.068,2.068,0,1,0,2.666-3.163Z" transform="translate(-213.343 -330.644)" fill="#fce677"/>
        </g>
      </g>
      <g id="Group_459" data-name="Group 459" transform="translate(0 0)">
        <g id="Group_458" data-name="Group 458">
          <path id="Path_116194" data-name="Path 116194" d="M24.159,100.7c-3.543-3.357-17.71-4.444-21.968-4.7A2.065,2.065,0,0,0,0,98.069v37.207a2.068,2.068,0,0,0,2.067,2.067h12.4a2.065,2.065,0,0,0,1.964-1.426c.3-.926,7.425-22.787,8.363-33.536A2.056,2.056,0,0,0,24.159,100.7Zm-11.2,32.506H4.134V100.285c6.644.525,13.812,1.666,16.416,2.931C19.455,112.27,14.5,128.355,12.96,133.209Z" transform="translate(0 -96.003)" fill="#fce677"/>
        </g>
      </g>
      <g id="Group_461" data-name="Group 461" transform="translate(70.353 4.133)">
        <g id="Group_460" data-name="Group 460" transform="translate(0 0)">
          <path id="Path_116195" data-name="Path 116195" d="M389.844,117.33c-16.23,0-25.234,4.155-25.611,4.328a2.057,2.057,0,0,0-1.1,1.286,2.084,2.084,0,0,0,.227,1.678c2.555,4.113,10.554,26.958,12.092,32.531a2.067,2.067,0,0,0,1.993,1.517h12.4a2.068,2.068,0,0,0,2.067-2.067V119.4A2.065,2.065,0,0,0,389.844,117.33Zm-2.067,37.207h-8.789c-1.96-6.383-7.747-23.027-10.976-29.906a67.325,67.325,0,0,1,19.765-3.142Z" transform="translate(-363.046 -117.33)" fill="#fce677"/>
        </g>
      </g>
    </g>
  </g>
</svg>
