<svg xmlns="http://www.w3.org/2000/svg" width="115.259" height="133.701" viewBox="0 0 115.259 133.701">
  <g id="idea-2" transform="translate(-7 -3)">
    <path id="Path_116196" data-name="Path 116196" d="M33.305,16.831A2.305,2.305,0,0,1,31,14.526V5.305a2.305,2.305,0,1,1,4.61,0v9.221A2.305,2.305,0,0,1,33.305,16.831Z" transform="translate(31.324 0)" fill="#fce677"/>
    <path id="Path_116197" data-name="Path 116197" d="M25.917,18.812a2.305,2.305,0,0,1-2-1.153l-4.61-7.985A2.305,2.305,0,1,1,23.3,7.369l4.61,7.985a2.305,2.305,0,0,1-1.994,3.458Z" transform="translate(15.661 4.197)" fill="#fce677"/>
    <path id="Path_116198" data-name="Path 116198" d="M20.507,24.221a2.287,2.287,0,0,1-1.153-.309L11.367,19.3a2.305,2.305,0,1,1,2.305-3.993l7.987,4.61a2.305,2.305,0,0,1-1.153,4.3Z" transform="translate(4.195 15.662)" fill="#fce677"/>
    <path id="Path_116199" data-name="Path 116199" d="M18.526,31.61H9.305a2.305,2.305,0,1,1,0-4.61h9.221a2.305,2.305,0,1,1,0,4.61Z" transform="translate(0 31.324)" fill="#fce677"/>
    <path id="Path_116200" data-name="Path 116200" d="M12.521,46.221a2.305,2.305,0,0,1-1.153-4.3l7.987-4.61A2.305,2.305,0,1,1,21.661,41.3l-7.987,4.61A2.287,2.287,0,0,1,12.521,46.221Z" transform="translate(4.197 44.376)" fill="#fce677"/>
    <path id="Path_116201" data-name="Path 116201" d="M58.612,46.221a2.287,2.287,0,0,1-1.153-.309L49.472,41.3a2.305,2.305,0,1,1,2.305-3.993l7.987,4.61a2.305,2.305,0,0,1-1.153,4.3Z" transform="translate(53.929 44.376)" fill="#fce677"/>
    <path id="Path_116202" data-name="Path 116202" d="M62.526,31.61H53.305a2.305,2.305,0,0,1,0-4.61h9.221a2.305,2.305,0,1,1,0,4.61Z" transform="translate(57.428 31.324)" fill="#fce677"/>
    <path id="Path_116203" data-name="Path 116203" d="M91.053,47.883H79.527a9.221,9.221,0,0,0-18.441,0h-4.61v-7.34A2.305,2.305,0,0,0,53.4,38.372a4.61,4.61,0,1,1,0-8.64,2.305,2.305,0,0,0,3.073-2.171V13.305A2.305,2.305,0,0,0,54.17,11,39.188,39.188,0,0,0,38.034,85.884v3.492H35.729a6.916,6.916,0,0,0-6.916,6.916v4.61a6.916,6.916,0,0,0,6.916,6.916h2.305v6.916A11.54,11.54,0,0,0,49.56,126.259h9.221a11.54,11.54,0,0,0,11.526-11.526v-6.916h2.305a6.916,6.916,0,0,0,6.916-6.916v-4.61a6.916,6.916,0,0,0-6.916-6.916H70.307V85.884a39.015,39.015,0,0,0,23.052-35.7A2.305,2.305,0,0,0,91.053,47.883Zm-39.188-32.2v9.145a9.221,9.221,0,1,0,0,18.441v4.61h-7.34a2.305,2.305,0,0,0-2.171,3.075,4.61,4.61,0,1,1-8.64,0,2.305,2.305,0,0,0-2.171-3.075H19.669a34.631,34.631,0,0,1,32.2-32.2ZM41.2,82.23A34.423,34.423,0,0,1,19.678,52.493h9.135a9.221,9.221,0,0,0,18.441,0h4.61v7.34A2.305,2.305,0,0,0,54.938,62a4.61,4.61,0,1,1,0,8.64,2.305,2.305,0,0,0-3.073,2.171v16.56H42.644V84.365A2.305,2.305,0,0,0,41.2,82.23Zm24.493,32.5a6.916,6.916,0,0,1-6.916,6.916H49.56a6.916,6.916,0,0,1-6.916-6.916v-6.916h4.61v6.916a2.305,2.305,0,1,0,4.61,0v-6.916h4.61v6.916a2.305,2.305,0,1,0,4.61,0v-6.916H65.7Zm6.916-20.747a2.305,2.305,0,0,1,2.305,2.305v4.61a2.305,2.305,0,0,1-2.305,2.305H35.729a2.305,2.305,0,0,1-2.305-2.305v-4.61a2.305,2.305,0,0,1,2.305-2.305ZM67.137,82.23A2.305,2.305,0,0,0,65.7,84.367v5.009H56.476V75.545a9.221,9.221,0,0,0,0-18.441v-4.61h7.34a2.305,2.305,0,0,0,2.171-3.075,4.61,4.61,0,1,1,8.64,0A2.305,2.305,0,0,0,76.8,52.493H88.672A34.433,34.433,0,0,1,67.137,82.23Z" transform="translate(10.459 10.441)" fill="#fce677"/>
    <path id="Path_116204" data-name="Path 116204" d="M46.526,3a2.305,2.305,0,0,0-2.305,2.305V16.831a9.221,9.221,0,1,0,0,18.441v6.916a2.305,2.305,0,0,0,2.305,2.305h9.645a2.305,2.305,0,0,0,2.171-3.075,4.61,4.61,0,1,1,8.64,0,2.305,2.305,0,0,0,2.171,3.075H83.409a2.305,2.305,0,0,0,2.305-2.305A39.232,39.232,0,0,0,46.526,3ZM71.883,39.883a9.221,9.221,0,1,0-18.441,0h-4.61v-7.34a2.305,2.305,0,0,0-3.073-2.171,4.61,4.61,0,1,1,0-8.64,2.305,2.305,0,0,0,3.073-2.171V7.686a34.631,34.631,0,0,1,32.2,32.2Z" transform="translate(36.545 0)" fill="#fce677"/>
  </g>
</svg>
