<svg id="Layer_7" xmlns="http://www.w3.org/2000/svg" width="120" height="120" viewBox="0 0 120 120">
  <g id="Group_673" data-name="Group 673" transform="translate(0 0)">
    <g id="Group_575" data-name="Group 575" transform="translate(15.233 16.247)">
      <path id="Path_116489" data-name="Path 116489" d="M121.13,43.1H33.872A1.372,1.372,0,0,1,32.5,41.727V36.034a1.372,1.372,0,0,1,1.372-1.372h87.257a1.372,1.372,0,0,1,1.372,1.372v5.693A1.372,1.372,0,0,1,121.13,43.1Z" transform="translate(-32.5 -34.662)" fill="#fce677"/>
    </g>
    <g id="Group_576" data-name="Group 576" transform="translate(35.457 29.802)">
      <path id="Path_116490" data-name="Path 116490" d="M81.177,74.272l-4.346-4.118a3.81,3.81,0,1,1,5.241-5.532l4.346,4.118a1.089,1.089,0,0,1,.042,1.539l-3.743,3.951a1.089,1.089,0,0,1-1.54.042Z" transform="translate(-75.641 -63.578)" fill="#fce677"/>
    </g>
    <g id="Group_577" data-name="Group 577" transform="translate(73.426 29.802)">
      <path id="Path_116491" data-name="Path 116491" d="M162.223,74.272l4.346-4.118a3.81,3.81,0,1,0-5.241-5.532l-4.346,4.118a1.089,1.089,0,0,0-.042,1.539l3.743,3.951a1.089,1.089,0,0,0,1.54.042Z" transform="translate(-156.642 -63.578)" fill="#fce677"/>
    </g>
    <g id="Group_581" data-name="Group 581" transform="translate(100.524 62.568)">
      <path id="Path_116493" data-name="Path 116493" d="M224.761,160.193V134.855a1.379,1.379,0,0,0-1.379-1.379h-8.933v26.717Z" transform="translate(-214.449 -133.476)" fill="#778dfc"/>
    </g>
    <g id="Group_582" data-name="Group 582" transform="translate(9.164 62.568)">
      <path id="Path_116494" data-name="Path 116494" d="M29.863,160.193V133.476H20.93a1.379,1.379,0,0,0-1.379,1.379v25.338Z" transform="translate(-19.551 -133.476)" fill="#778dfc"/>
    </g>
    <g id="Group_583" data-name="Group 583" transform="translate(10.57 67.266)">
      <circle id="Ellipse_101" data-name="Ellipse 101" cx="3.75" cy="3.75" r="3.75" fill="#77cffc"/>
    </g>
    <g id="Group_584" data-name="Group 584" transform="translate(10.57 76.641)">
      <circle id="Ellipse_102" data-name="Ellipse 102" cx="3.75" cy="3.75" r="3.75" fill="#77cffc"/>
    </g>
    <g id="Group_585" data-name="Group 585" transform="translate(101.93 67.266)">
      <circle id="Ellipse_103" data-name="Ellipse 103" cx="3.75" cy="3.75" r="3.75" fill="#77cffc"/>
    </g>
    <g id="Group_586" data-name="Group 586" transform="translate(101.93 76.641)">
      <circle id="Ellipse_104" data-name="Ellipse 104" cx="3.75" cy="3.75" r="3.75" fill="#77cffc"/>
    </g>
    <g id="Group_587" data-name="Group 587" transform="translate(6.093 89.288)">
      <path id="Path_116495" data-name="Path 116495" d="M119.11,220.017H14.7a1.7,1.7,0,0,1-1.7-1.7V192.179a1.7,1.7,0,0,1,1.7-1.7H119.11a1.7,1.7,0,0,1,1.7,1.7v26.134A1.7,1.7,0,0,1,119.11,220.017Z" transform="translate(-13 -190.476)" fill="#fce677"/>
    </g>
    <g id="Group_588" data-name="Group 588" transform="translate(70.313 81.797)">
      <path id="Path_116496" data-name="Path 116496" d="M163.593,181.988v-4.863a2.625,2.625,0,0,0-2.625-2.625h-8.343A2.625,2.625,0,0,0,150,177.125v4.863Z" transform="translate(-150 -174.5)" fill="#5290db"/>
    </g>
    <g id="Group_589" data-name="Group 589" transform="translate(36.094 81.797)">
      <path id="Path_116497" data-name="Path 116497" d="M90.593,181.988v-4.863a2.625,2.625,0,0,0-2.625-2.625H79.625A2.625,2.625,0,0,0,77,177.125v4.863Z" transform="translate(-77 -174.5)" fill="#5290db"/>
    </g>
    <g id="Group_590" data-name="Group 590" transform="translate(25.516 100.124)">
      <circle id="Ellipse_105" data-name="Ellipse 105" cx="4.865" cy="4.865" r="4.865" fill="#fce677"/>
    </g>
    <g id="Group_591" data-name="Group 591" transform="translate(43.797 98.657)">
      <circle id="Ellipse_106" data-name="Ellipse 106" cx="4.865" cy="4.865" r="4.865" transform="translate(0 8.991) rotate(-67.486)" fill="#fce677"/>
    </g>
    <g id="Group_592" data-name="Group 592" transform="translate(64.267 99.412)">
      <circle id="Ellipse_107" data-name="Ellipse 107" cx="4.865" cy="4.865" r="4.865" transform="matrix(0.987, -0.16, 0.16, 0.987, 0, 1.557)" fill="#fce677"/>
    </g>
    <g id="Group_593" data-name="Group 593" transform="translate(22.596 110.827)">
      <path id="Path_116498" data-name="Path 116498" d="M57.936,236.43H54.043a5.855,5.855,0,0,0-5.838,5.838v2.163H63.774v-2.163A5.855,5.855,0,0,0,57.936,236.43Z" transform="translate(-48.205 -236.43)" fill="#a477fc"/>
    </g>
    <g id="Group_594" data-name="Group 594" transform="translate(81.835 110.827)">
      <path id="Path_116499" data-name="Path 116499" d="M184.31,236.43h-3.892a5.855,5.855,0,0,0-5.838,5.838v2.163h15.569v-2.163A5.855,5.855,0,0,0,184.31,236.43Z" transform="translate(-174.579 -236.43)" fill="#a477fc"/>
    </g>
    <g id="Group_595" data-name="Group 595" transform="translate(42.343 110.827)">
      <path id="Path_116500" data-name="Path 116500" d="M100.061,236.43H96.168a5.855,5.855,0,0,0-5.838,5.838v2.163H105.9v-2.163A5.855,5.855,0,0,0,100.061,236.43Z" transform="translate(-90.33 -236.43)" fill="#a477fc"/>
    </g>
    <g id="Group_596" data-name="Group 596" transform="translate(62.088 110.827)">
      <path id="Path_116501" data-name="Path 116501" d="M142.185,236.43h-3.892a5.855,5.855,0,0,0-5.838,5.838v2.163h15.569v-2.163A5.855,5.855,0,0,0,142.185,236.43Z" transform="translate(-132.454 -236.43)" fill="#a477fc"/>
    </g>
    <g id="Group_597" data-name="Group 597" transform="translate(84.754 100.124)">
      <circle id="Ellipse_108" data-name="Ellipse 108" cx="4.865" cy="4.865" r="4.865" fill="#fce677"/>
    </g>
    <g id="Group_598" data-name="Group 598" transform="translate(33.919 89.28)">
      <circle id="Ellipse_109" data-name="Ellipse 109" cx="4.865" cy="4.865" r="4.865" transform="translate(0 8.991) rotate(-67.486)" fill="#fce677"/>
    </g>
    <g id="Group_599" data-name="Group 599" transform="translate(54.397 90.035)">
      <circle id="Ellipse_110" data-name="Ellipse 110" cx="4.865" cy="4.865" r="4.865" transform="matrix(0.987, -0.16, 0.16, 0.987, 0, 1.557)" fill="#fce677"/>
    </g>
    <g id="Group_600" data-name="Group 600" transform="translate(74.88 90.748)">
      <circle id="Ellipse_111" data-name="Ellipse 111" cx="4.865" cy="4.865" r="4.865" fill="#fce677"/>
    </g>
    <g id="Group_601" data-name="Group 601" transform="translate(32.47 101.453)">
      <path id="Path_116502" data-name="Path 116502" d="M82.06,219.967a4.837,4.837,0,0,1,.561-2.263A5.8,5.8,0,0,0,79,216.431H75.107a5.8,5.8,0,0,0-3.621,1.273,4.855,4.855,0,0,1-2.217,6.653v1.456a5.853,5.853,0,0,1,5.7,5.831v2.163h4.176v-2.163a5.852,5.852,0,0,1,5.7-5.831v-1.456A4.86,4.86,0,0,1,82.06,219.967Z" transform="translate(-69.269 -216.431)" fill="#778dfc"/>
    </g>
    <g id="Group_602" data-name="Group 602" transform="translate(52.216 101.453)">
      <path id="Path_116503" data-name="Path 116503" d="M124.184,219.967a4.836,4.836,0,0,1,.561-2.263,5.8,5.8,0,0,0-3.621-1.273h-3.892a5.8,5.8,0,0,0-3.621,1.273,4.855,4.855,0,0,1-2.217,6.653v1.456a5.853,5.853,0,0,1,5.7,5.831v2.163h4.176v-2.163a5.852,5.852,0,0,1,5.7-5.831v-1.456A4.86,4.86,0,0,1,124.184,219.967Z" transform="translate(-111.393 -216.431)" fill="#778dfc"/>
    </g>
    <g id="Group_603" data-name="Group 603" transform="translate(71.962 101.453)">
      <path id="Path_116504" data-name="Path 116504" d="M166.309,219.967a4.836,4.836,0,0,1,.561-2.263,5.8,5.8,0,0,0-3.621-1.273h-3.892a5.8,5.8,0,0,0-3.621,1.273,4.855,4.855,0,0,1-2.217,6.653v1.456a5.853,5.853,0,0,1,5.7,5.831v2.163h4.176v-2.163a5.852,5.852,0,0,1,5.7-5.831v-1.456A4.86,4.86,0,0,1,166.309,219.967Z" transform="translate(-153.518 -216.431)" fill="#778dfc"/>
    </g>
    <g id="Group_604" data-name="Group 604" transform="translate(33.756 6.796)">
      <circle id="Ellipse_112" data-name="Ellipse 112" cx="1.594" cy="1.594" r="1.594" fill="#fce677"/>
    </g>
    <g id="Group_605" data-name="Group 605" transform="translate(107.723 34.5)">
      <path id="Path_116505" data-name="Path 116505" d="M231.31,79.178h1.078v1.078a1.481,1.481,0,0,0,1.5,1.5,1.5,1.5,0,0,0,1.5-1.453V79.178h1.078a1.481,1.481,0,0,0,1.5-1.5,1.5,1.5,0,0,0-1.453-1.5h-1.125V75.1a1.481,1.481,0,0,0-1.5-1.5,1.5,1.5,0,0,0-1.5,1.453v1.125H231.31a1.481,1.481,0,0,0-1.5,1.5,1.452,1.452,0,0,0,1.5,1.5Z" transform="translate(-229.808 -73.6)" fill="#87d147"/>
    </g>
    <g id="Group_606" data-name="Group 606" transform="translate(116.813 54.141)">
      <circle id="Ellipse_113" data-name="Ellipse 113" cx="1.594" cy="1.594" r="1.594" fill="#f5c84c"/>
    </g>
    <g id="Group_607" data-name="Group 607" transform="translate(50.467)">
      <path id="Path_116506" data-name="Path 116506" d="M107.733,4.148A5.2,5.2,0,0,0,111.9.07c0-.094.187-.094.187,0a5.2,5.2,0,0,0,4.172,4.078c.094,0,.094.141,0,.187a5.2,5.2,0,0,0-4.172,4.078c0,.094-.187.094-.187,0a5.2,5.2,0,0,0-4.172-4.078c-.094-.047-.094-.187,0-.187Z" transform="translate(-107.663 0)" fill="#fce677"/>
    </g>
    <g id="Group_608" data-name="Group 608" transform="translate(0 50.637)">
      <path id="Path_116507" data-name="Path 116507" d="M5.988,110.919a3.654,3.654,0,0,1-2.906-2.859c0-.047-.141-.047-.141,0a3.654,3.654,0,0,1-2.906,2.859c-.047,0-.047.094,0,.141a3.654,3.654,0,0,1,2.906,2.859c0,.047.141.047.141,0a3.654,3.654,0,0,1,2.906-2.859C6.035,111.013,6.035,110.919,5.988,110.919Z" transform="translate(0 -108.025)" fill="#70d6f9"/>
    </g>
    <g id="Group_609" data-name="Group 609" transform="translate(18.304 24.143)">
      <path id="Path_116508" data-name="Path 116508" d="M40.223,117.37a1.172,1.172,0,0,1-1.172-1.172V52.672a1.172,1.172,0,0,1,2.344,0V116.2A1.172,1.172,0,0,1,40.223,117.37Z" transform="translate(-39.051 -51.5)" fill="#d1be68"/>
    </g>
    <g id="Group_610" data-name="Group 610" transform="translate(28.856 24.181)">
      <path id="Path_116509" data-name="Path 116509" d="M62.732,117.414a1.172,1.172,0,0,1-1.172-1.172V52.755a1.172,1.172,0,0,1,2.344,0v63.487A1.172,1.172,0,0,1,62.732,117.414Z" transform="translate(-61.56 -51.583)" fill="#d1be68"/>
    </g>
    <g id="Group_611" data-name="Group 611" transform="translate(18.305 24.797)">
      <path id="Path_116510" data-name="Path 116510" d="M50.773,65.823a1.167,1.167,0,0,1-.83-.345L39.393,54.9a1.172,1.172,0,0,1,1.659-1.655L51.6,63.824a1.172,1.172,0,0,1-.83,2Z" transform="translate(-39.051 -52.901)" fill="#fce677"/>
    </g>
    <g id="Group_612" data-name="Group 612" transform="translate(18.305 24.798)">
      <path id="Path_116511" data-name="Path 116511" d="M40.223,65.824a1.172,1.172,0,0,1-.83-2l10.55-10.579A1.172,1.172,0,1,1,51.6,54.9L41.052,65.479a1.167,1.167,0,0,1-.83.345Z" transform="translate(-39.051 -52.901)" fill="#fce677"/>
    </g>
    <g id="Group_613" data-name="Group 613" transform="translate(18.305 37.661)">
      <path id="Path_116512" data-name="Path 116512" d="M50.773,93.266a1.167,1.167,0,0,1-.83-.345L39.393,82.342a1.172,1.172,0,0,1,1.659-1.655L51.6,91.267a1.172,1.172,0,0,1-.83,2Z" transform="translate(-39.051 -80.343)" fill="#fce677"/>
    </g>
    <g id="Group_614" data-name="Group 614" transform="translate(18.305 37.661)">
      <path id="Path_116513" data-name="Path 116513" d="M40.223,93.266a1.172,1.172,0,0,1-.83-2l10.55-10.579A1.172,1.172,0,1,1,51.6,82.342L41.052,92.921A1.169,1.169,0,0,1,40.223,93.266Z" transform="translate(-39.051 -80.343)" fill="#fce677"/>
    </g>
    <g id="Group_615" data-name="Group 615" transform="translate(18.305 50.524)">
      <path id="Path_116514" data-name="Path 116514" d="M50.773,120.706a1.167,1.167,0,0,1-.83-.345l-10.55-10.579a1.172,1.172,0,0,1,1.659-1.655L51.6,118.707a1.172,1.172,0,0,1-.83,2Z" transform="translate(-39.051 -107.784)" fill="#fce677"/>
    </g>
    <g id="Group_616" data-name="Group 616" transform="translate(18.305 50.524)">
      <path id="Path_116515" data-name="Path 116515" d="M40.223,120.706a1.172,1.172,0,0,1-.83-2l10.55-10.579a1.172,1.172,0,0,1,1.659,1.655l-10.55,10.579a1.167,1.167,0,0,1-.83.345Z" transform="translate(-39.051 -107.784)" fill="#fce677"/>
    </g>
    <g id="Group_617" data-name="Group 617" transform="translate(18.305 63.387)">
      <path id="Path_116516" data-name="Path 116516" d="M50.773,148.147a1.167,1.167,0,0,1-.83-.344l-10.55-10.579a1.172,1.172,0,1,1,1.659-1.655L51.6,146.148a1.172,1.172,0,0,1-.83,2Z" transform="translate(-39.051 -135.225)" fill="#fce677"/>
    </g>
    <g id="Group_618" data-name="Group 618" transform="translate(18.305 63.387)">
      <path id="Path_116517" data-name="Path 116517" d="M40.223,148.147a1.172,1.172,0,0,1-.83-2l10.55-10.579a1.172,1.172,0,1,1,1.659,1.655L41.052,147.8A1.167,1.167,0,0,1,40.223,148.147Z" transform="translate(-39.051 -135.225)" fill="#fce677"/>
    </g>
    <g id="Group_619" data-name="Group 619" transform="translate(18.305 76.251)">
      <path id="Path_116518" data-name="Path 116518" d="M50.773,175.589a1.167,1.167,0,0,1-.83-.344l-10.55-10.579a1.172,1.172,0,1,1,1.659-1.655L51.6,173.59a1.172,1.172,0,0,1-.83,2Z" transform="translate(-39.051 -162.667)" fill="#fce677"/>
    </g>
    <g id="Group_620" data-name="Group 620" transform="translate(18.305 76.251)">
      <path id="Path_116519" data-name="Path 116519" d="M40.223,175.59a1.172,1.172,0,0,1-.83-2l10.55-10.579a1.172,1.172,0,1,1,1.659,1.655l-10.55,10.579A1.167,1.167,0,0,1,40.223,175.59Z" transform="translate(-39.051 -162.667)" fill="#fce677"/>
    </g>
    <g id="Group_621" data-name="Group 621" transform="translate(18.745 36.436)">
      <path id="Path_116520" data-name="Path 116520" d="M50.831,80.073H41.16a1.172,1.172,0,0,1,0-2.344h9.671a1.172,1.172,0,0,1,0,2.344Z" transform="translate(-39.988 -77.729)" fill="#fce677"/>
    </g>
    <g id="Group_622" data-name="Group 622" transform="translate(18.745 49.387)">
      <path id="Path_116521" data-name="Path 116521" d="M50.831,107.7H41.16a1.172,1.172,0,1,1,0-2.344h9.671a1.172,1.172,0,0,1,0,2.344Z" transform="translate(-39.988 -105.358)" fill="#fce677"/>
    </g>
    <g id="Group_623" data-name="Group 623" transform="translate(18.745 62.338)">
      <path id="Path_116522" data-name="Path 116522" d="M50.831,135.331H41.16a1.172,1.172,0,0,1,0-2.344h9.671a1.172,1.172,0,0,1,0,2.344Z" transform="translate(-39.988 -132.987)" fill="#fce677"/>
    </g>
    <g id="Group_624" data-name="Group 624" transform="translate(18.745 75.289)">
      <path id="Path_116523" data-name="Path 116523" d="M50.831,162.961H41.16a1.172,1.172,0,0,1,0-2.344h9.671a1.172,1.172,0,0,1,0,2.344Z" transform="translate(-39.988 -160.617)" fill="#fce677"/>
    </g>
    <g id="Group_625" data-name="Group 625" transform="translate(99.352 24.084)">
      <path id="Path_116524" data-name="Path 116524" d="M213.121,117.171A1.172,1.172,0,0,1,211.949,116V52.547a1.172,1.172,0,0,1,2.344,0V116A1.172,1.172,0,0,1,213.121,117.171Z" transform="translate(-211.949 -51.375)" fill="#d1be68"/>
    </g>
    <g id="Group_626" data-name="Group 626" transform="translate(88.8 24.084)">
      <path id="Path_116525" data-name="Path 116525" d="M190.612,117.171A1.172,1.172,0,0,1,189.44,116V52.547a1.172,1.172,0,1,1,2.344,0V116A1.172,1.172,0,0,1,190.612,117.171Z" transform="translate(-189.44 -51.375)" fill="#d1be68"/>
    </g>
    <g id="Group_627" data-name="Group 627" transform="translate(88.801 24.797)">
      <path id="Path_116526" data-name="Path 116526" d="M201.162,65.823a1.167,1.167,0,0,1-.83-.345L189.782,54.9a1.172,1.172,0,0,1,1.659-1.655l10.55,10.579a1.172,1.172,0,0,1-.83,2Z" transform="translate(-189.44 -52.901)" fill="#fce677"/>
    </g>
    <g id="Group_628" data-name="Group 628" transform="translate(88.801 24.798)">
      <path id="Path_116527" data-name="Path 116527" d="M190.612,65.824a1.172,1.172,0,0,1-.83-2l10.55-10.579a1.172,1.172,0,0,1,1.659,1.655l-10.55,10.579a1.166,1.166,0,0,1-.83.345Z" transform="translate(-189.44 -52.901)" fill="#fce677"/>
    </g>
    <g id="Group_629" data-name="Group 629" transform="translate(88.801 37.661)">
      <path id="Path_116528" data-name="Path 116528" d="M201.162,93.266a1.167,1.167,0,0,1-.83-.345l-10.55-10.579a1.172,1.172,0,0,1,1.659-1.655l10.55,10.579a1.172,1.172,0,0,1-.83,2Z" transform="translate(-189.44 -80.343)" fill="#fce677"/>
    </g>
    <g id="Group_630" data-name="Group 630" transform="translate(88.801 37.661)">
      <path id="Path_116529" data-name="Path 116529" d="M190.612,93.266a1.172,1.172,0,0,1-.83-2l10.55-10.579a1.172,1.172,0,0,1,1.659,1.655l-10.55,10.579A1.168,1.168,0,0,1,190.612,93.266Z" transform="translate(-189.44 -80.343)" fill="#fce677"/>
    </g>
    <g id="Group_631" data-name="Group 631" transform="translate(88.801 50.524)">
      <path id="Path_116530" data-name="Path 116530" d="M201.162,120.706a1.167,1.167,0,0,1-.83-.345l-10.55-10.579a1.172,1.172,0,0,1,1.659-1.655l10.55,10.579a1.172,1.172,0,0,1-.83,2Z" transform="translate(-189.44 -107.784)" fill="#fce677"/>
    </g>
    <g id="Group_632" data-name="Group 632" transform="translate(88.801 50.524)">
      <path id="Path_116531" data-name="Path 116531" d="M190.612,120.706a1.172,1.172,0,0,1-.83-2l10.55-10.579a1.172,1.172,0,0,1,1.659,1.655l-10.55,10.579a1.166,1.166,0,0,1-.83.345Z" transform="translate(-189.44 -107.784)" fill="#fce677"/>
    </g>
    <g id="Group_633" data-name="Group 633" transform="translate(88.801 63.387)">
      <path id="Path_116532" data-name="Path 116532" d="M201.162,148.147a1.167,1.167,0,0,1-.83-.344l-10.55-10.579a1.172,1.172,0,0,1,1.659-1.655l10.55,10.579a1.172,1.172,0,0,1-.83,2Z" transform="translate(-189.44 -135.225)" fill="#fce677"/>
    </g>
    <g id="Group_634" data-name="Group 634" transform="translate(88.801 63.387)">
      <path id="Path_116533" data-name="Path 116533" d="M190.612,148.147a1.172,1.172,0,0,1-.83-2l10.55-10.579a1.172,1.172,0,0,1,1.659,1.655L191.441,147.8A1.166,1.166,0,0,1,190.612,148.147Z" transform="translate(-189.44 -135.225)" fill="#fce677"/>
    </g>
    <g id="Group_635" data-name="Group 635" transform="translate(88.801 76.251)">
      <path id="Path_116534" data-name="Path 116534" d="M201.162,175.589a1.167,1.167,0,0,1-.83-.344l-10.55-10.579a1.172,1.172,0,1,1,1.659-1.655l10.55,10.579a1.172,1.172,0,0,1-.83,2Z" transform="translate(-189.44 -162.667)" fill="#fce677"/>
    </g>
    <g id="Group_636" data-name="Group 636" transform="translate(88.801 76.251)">
      <path id="Path_116535" data-name="Path 116535" d="M190.612,175.59a1.172,1.172,0,0,1-.83-2l10.55-10.579a1.172,1.172,0,1,1,1.659,1.655l-10.55,10.579A1.166,1.166,0,0,1,190.612,175.59Z" transform="translate(-189.44 -162.667)" fill="#fce677"/>
    </g>
    <g id="Group_637" data-name="Group 637" transform="translate(89.241 36.436)">
      <path id="Path_116536" data-name="Path 116536" d="M201.222,80.073h-9.671a1.172,1.172,0,0,1,0-2.344h9.671a1.172,1.172,0,0,1,0,2.344Z" transform="translate(-190.379 -77.729)" fill="#fce677"/>
    </g>
    <g id="Group_638" data-name="Group 638" transform="translate(89.241 49.387)">
      <path id="Path_116537" data-name="Path 116537" d="M201.222,107.7h-9.671a1.172,1.172,0,1,1,0-2.344h9.671a1.172,1.172,0,1,1,0,2.344Z" transform="translate(-190.379 -105.358)" fill="#fce677"/>
    </g>
    <g id="Group_639" data-name="Group 639" transform="translate(89.241 62.338)">
      <path id="Path_116538" data-name="Path 116538" d="M201.222,135.331h-9.671a1.172,1.172,0,1,1,0-2.344h9.671a1.172,1.172,0,1,1,0,2.344Z" transform="translate(-190.379 -132.987)" fill="#fce677"/>
    </g>
    <g id="Group_640" data-name="Group 640" transform="translate(89.241 75.289)">
      <path id="Path_116539" data-name="Path 116539" d="M201.222,162.961h-9.671a1.172,1.172,0,0,1,0-2.344h9.671a1.172,1.172,0,0,1,0,2.344Z" transform="translate(-190.379 -160.617)" fill="#fce677"/>
    </g>
    <g id="Group_641" data-name="Group 641" transform="translate(38.357 23.906)">
      <path id="Path_116540" data-name="Path 116540" d="M83,61.312a1.172,1.172,0,0,1-1.172-1.172V52.172a1.172,1.172,0,1,1,2.344,0V60.14A1.172,1.172,0,0,1,83,61.312Z" transform="translate(-81.828 -51)" fill="#a477fc"/>
    </g>
    <g id="Group_642" data-name="Group 642" transform="translate(79.299 23.906)">
      <path id="Path_116541" data-name="Path 116541" d="M170.344,61.312a1.172,1.172,0,0,1-1.172-1.172V52.172a1.172,1.172,0,0,1,2.344,0V60.14A1.172,1.172,0,0,1,170.344,61.312Z" transform="translate(-169.172 -51)" fill="#a477fc"/>
    </g>
    <g id="Group_644" data-name="Group 644" transform="translate(14.062 15.075)">
      <path id="Path_116543" data-name="Path 116543" d="M119.8,42.943H32.544A2.547,2.547,0,0,1,30,40.4V34.706a2.547,2.547,0,0,1,2.544-2.544H119.8a2.547,2.547,0,0,1,2.544,2.544V40.4a2.547,2.547,0,0,1-2.544,2.544ZM32.544,34.506a.2.2,0,0,0-.2.2V40.4a.2.2,0,0,0,.2.2H119.8a.2.2,0,0,0,.2-.2V34.706a.2.2,0,0,0-.2-.2Z" transform="translate(-30 -32.162)" fill="#d1be68"/>
    </g>
    <g id="Group_645" data-name="Group 645" transform="translate(34.286 28.633)">
      <path id="Path_116544" data-name="Path 116544" d="M80.6,74.416a2.255,2.255,0,0,1-1.554-.618L74.7,69.679a4.982,4.982,0,1,1,6.854-7.233L85.9,66.565a2.264,2.264,0,0,1,.086,3.2L82.24,73.712A2.259,2.259,0,0,1,80.6,74.416Zm.057-2.32Zm-2.53-8.67a2.638,2.638,0,0,0-1.815,4.552l4.286,4.061,3.63-3.83-4.286-4.061A2.628,2.628,0,0,0,78.124,63.426Z" transform="translate(-73.142 -61.083)" fill="#a477fc"/>
    </g>
    <g id="Group_646" data-name="Group 646" transform="translate(72.256 28.633)">
      <path id="Path_116545" data-name="Path 116545" d="M160.147,74.416a2.256,2.256,0,0,1-1.641-.7l-3.744-3.951a2.265,2.265,0,0,1,.086-3.2l4.346-4.118a4.982,4.982,0,1,1,6.853,7.233L161.7,73.8a2.256,2.256,0,0,1-1.555.618Zm.749-1.469h0Zm-.805-.851Zm-3.57-3.887,3.63,3.83,4.286-4.061a2.638,2.638,0,1,0-3.629-3.83Z" transform="translate(-154.144 -61.084)" fill="#a477fc"/>
    </g>
    <g id="Group_650" data-name="Group 650" transform="translate(99.352 61.396)">
      <path id="Path_116549" data-name="Path 116549" d="M223.433,160.037H213.121a1.172,1.172,0,0,1-1.172-1.172V132.148a1.172,1.172,0,0,1,1.172-1.172h8.933a2.554,2.554,0,0,1,2.551,2.551v25.338A1.172,1.172,0,0,1,223.433,160.037Zm-9.14-2.344h7.968V133.527a.207.207,0,0,0-.207-.207h-7.761Z" transform="translate(-211.949 -130.976)" fill="#8d59f4"/>
    </g>
    <g id="Group_651" data-name="Group 651" transform="translate(7.992 61.396)">
      <path id="Path_116550" data-name="Path 116550" d="M28.535,160.037H18.223a1.172,1.172,0,0,1-1.172-1.172V133.527a2.554,2.554,0,0,1,2.551-2.551h8.933a1.172,1.172,0,0,1,1.172,1.172v26.717A1.172,1.172,0,0,1,28.535,160.037Zm-9.14-2.344h7.968V133.32H19.6a.207.207,0,0,0-.207.207Z" transform="translate(-17.051 -130.976)" fill="#8d59f4"/>
    </g>
    <g id="Group_652" data-name="Group 652" transform="translate(9.398 66.094)">
      <path id="Path_116551" data-name="Path 116551" d="M24.973,150.843a4.922,4.922,0,1,1,4.922-4.922A4.927,4.927,0,0,1,24.973,150.843Zm0-7.5a2.578,2.578,0,1,0,2.578,2.578A2.581,2.581,0,0,0,24.973,143.344Z" transform="translate(-20.051 -141)" fill="#fce677"/>
    </g>
    <g id="Group_653" data-name="Group 653" transform="translate(9.398 75.469)">
      <path id="Path_116552" data-name="Path 116552" d="M24.973,170.843a4.922,4.922,0,1,1,4.922-4.922A4.927,4.927,0,0,1,24.973,170.843Zm0-7.5a2.578,2.578,0,1,0,2.578,2.578A2.581,2.581,0,0,0,24.973,163.344Z" transform="translate(-20.051 -161)" fill="#fce677"/>
    </g>
    <g id="Group_654" data-name="Group 654" transform="translate(100.759 66.094)">
      <path id="Path_116553" data-name="Path 116553" d="M219.871,150.843a4.922,4.922,0,1,1,4.922-4.922A4.927,4.927,0,0,1,219.871,150.843Zm0-7.5a2.578,2.578,0,1,0,2.578,2.578A2.581,2.581,0,0,0,219.871,143.344Z" transform="translate(-214.949 -141)" fill="#fce677"/>
    </g>
    <g id="Group_655" data-name="Group 655" transform="translate(100.759 75.469)">
      <path id="Path_116554" data-name="Path 116554" d="M219.871,170.843a4.922,4.922,0,1,1,4.922-4.922A4.927,4.927,0,0,1,219.871,170.843Zm0-7.5a2.578,2.578,0,1,0,2.578,2.578A2.581,2.581,0,0,0,219.871,163.344Z" transform="translate(-214.949 -161)" fill="#fce677"/>
    </g>
    <g id="Group_656" data-name="Group 656" transform="translate(4.922 88.116)">
      <path id="Path_116555" data-name="Path 116555" d="M117.782,219.86H13.375a2.878,2.878,0,0,1-2.875-2.875V190.851a2.878,2.878,0,0,1,2.875-2.875H117.782a2.878,2.878,0,0,1,2.875,2.875v26.134A2.878,2.878,0,0,1,117.782,219.86ZM13.375,190.32a.532.532,0,0,0-.532.532v26.134a.532.532,0,0,0,.532.532H117.782a.532.532,0,0,0,.532-.532V190.851a.532.532,0,0,0-.532-.532Z" transform="translate(-10.5 -187.976)" fill="#8d59f4"/>
    </g>
    <g id="Group_657" data-name="Group 657" transform="translate(69.141 80.625)">
      <path id="Path_116556" data-name="Path 116556" d="M162.265,181.257a1.172,1.172,0,0,1-1.172-1.172V175.8a1.455,1.455,0,0,0-1.453-1.453H151.3a1.455,1.455,0,0,0-1.453,1.453v4.289a1.172,1.172,0,0,1-2.344,0V175.8a3.8,3.8,0,0,1,3.8-3.8h8.343a3.8,3.8,0,0,1,3.8,3.8v4.289A1.172,1.172,0,0,1,162.265,181.257Z" transform="translate(-147.5 -172)"/>
    </g>
    <g id="Group_658" data-name="Group 658" transform="translate(34.922 80.625)">
      <path id="Path_116557" data-name="Path 116557" d="M75.672,181.287a1.172,1.172,0,0,1-1.172-1.172V175.8a3.8,3.8,0,0,1,3.8-3.8H86.64a3.8,3.8,0,0,1,3.8,3.8v4.289a1.172,1.172,0,0,1-2.344,0V175.8a1.455,1.455,0,0,0-1.453-1.453H78.3a1.455,1.455,0,0,0-1.453,1.453v4.318a1.172,1.172,0,0,1-1.172,1.172Z" transform="translate(-74.5 -172)"/>
    </g>
    <g id="Group_659" data-name="Group 659" transform="translate(24.344 98.952)">
      <path id="Path_116558" data-name="Path 116558" d="M57.97,223.168a6.037,6.037,0,1,1,6.037-6.037A6.044,6.044,0,0,1,57.97,223.168Zm0-9.73a3.694,3.694,0,1,0,3.693,3.694A3.7,3.7,0,0,0,57.97,213.438Z" transform="translate(-51.933 -211.094)"/>
    </g>
    <g id="Group_660" data-name="Group 660" transform="translate(44.09 98.952)">
      <path id="Path_116559" data-name="Path 116559" d="M100.095,223.168a6.037,6.037,0,1,1,6.037-6.037A6.044,6.044,0,0,1,100.095,223.168Zm0-9.73a3.694,3.694,0,1,0,3.694,3.694A3.7,3.7,0,0,0,100.095,213.438Z" transform="translate(-94.058 -211.094)"/>
    </g>
    <g id="Group_661" data-name="Group 661" transform="translate(63.836 98.952)">
      <path id="Path_116560" data-name="Path 116560" d="M142.219,223.168a6.037,6.037,0,1,1,6.037-6.037A6.044,6.044,0,0,1,142.219,223.168Zm0-9.73a3.694,3.694,0,1,0,3.693,3.694A3.7,3.7,0,0,0,142.219,213.438Z" transform="translate(-136.182 -211.094)"/>
    </g>
    <g id="Group_662" data-name="Group 662" transform="translate(21.424 109.655)">
      <path id="Path_116561" data-name="Path 116561" d="M62.446,243.689a1.172,1.172,0,0,1-1.172-1.172V240.94a4.672,4.672,0,0,0-4.667-4.667H52.715a4.672,4.672,0,0,0-4.667,4.667v1.489a1.172,1.172,0,0,1-2.344,0V240.94a7.018,7.018,0,0,1,7.01-7.01h3.892a7.018,7.018,0,0,1,7.01,7.01v1.577A1.172,1.172,0,0,1,62.446,243.689Z" transform="translate(-45.705 -233.93)"/>
    </g>
    <g id="Group_663" data-name="Group 663" transform="translate(80.662 109.656)">
      <path id="Path_116562" data-name="Path 116562" d="M188.819,243.728a1.172,1.172,0,0,1-1.172-1.172v-1.615a4.672,4.672,0,0,0-4.667-4.667h-3.892a4.672,4.672,0,0,0-4.667,4.667v1.615a1.172,1.172,0,1,1-2.344,0v-1.615a7.018,7.018,0,0,1,7.01-7.01h3.892a7.018,7.018,0,0,1,7.01,7.01v1.615A1.172,1.172,0,0,1,188.819,243.728Z" transform="translate(-172.078 -233.931)"/>
    </g>
    <g id="Group_664" data-name="Group 664" transform="translate(41.17 109.656)">
      <path id="Path_116563" data-name="Path 116563" d="M104.57,243.924a1.172,1.172,0,0,1-1.172-1.172v-1.811a4.672,4.672,0,0,0-4.667-4.667H94.839a4.672,4.672,0,0,0-4.667,4.667v1.723a1.172,1.172,0,1,1-2.344,0v-1.723a7.018,7.018,0,0,1,7.01-7.01h3.892a7.018,7.018,0,0,1,7.01,7.01v1.811A1.172,1.172,0,0,1,104.57,243.924Z" transform="translate(-87.829 -233.931)"/>
    </g>
    <g id="Group_665" data-name="Group 665" transform="translate(60.917 109.656)">
      <path id="Path_116564" data-name="Path 116564" d="M146.695,243.728a1.172,1.172,0,0,1-1.172-1.172v-1.615a4.672,4.672,0,0,0-4.667-4.667h-3.892a4.672,4.672,0,0,0-4.667,4.667v1.6a1.172,1.172,0,0,1-2.344,0v-1.6a7.018,7.018,0,0,1,7.01-7.01h3.892a7.018,7.018,0,0,1,7.01,7.01v1.615A1.172,1.172,0,0,1,146.695,243.728Z" transform="translate(-129.954 -233.931)"/>
    </g>
    <g id="Group_666" data-name="Group 666" transform="translate(83.582 98.952)">
      <path id="Path_116565" data-name="Path 116565" d="M184.345,223.168a6.037,6.037,0,1,1,6.037-6.037A6.044,6.044,0,0,1,184.345,223.168Zm0-9.73a3.694,3.694,0,1,0,3.694,3.694A3.7,3.7,0,0,0,184.345,213.438Z" transform="translate(-178.308 -211.094)"/>
    </g>
    <g id="Group_667" data-name="Group 667" transform="translate(34.217 89.576)">
      <path id="Path_116566" data-name="Path 116566" d="M79.032,203.168a6.037,6.037,0,1,1,6.037-6.037A6.044,6.044,0,0,1,79.032,203.168Zm0-9.73a3.694,3.694,0,1,0,3.694,3.694A3.7,3.7,0,0,0,79.032,193.438Z" transform="translate(-72.995 -191.094)"/>
    </g>
    <g id="Group_668" data-name="Group 668" transform="translate(53.963 89.576)">
      <path id="Path_116567" data-name="Path 116567" d="M121.157,203.168a6.037,6.037,0,1,1,6.037-6.037A6.044,6.044,0,0,1,121.157,203.168Zm0-9.73a3.694,3.694,0,1,0,3.694,3.694A3.7,3.7,0,0,0,121.157,193.438Z" transform="translate(-115.12 -191.094)"/>
    </g>
    <g id="Group_669" data-name="Group 669" transform="translate(73.709 89.576)">
      <path id="Path_116568" data-name="Path 116568" d="M163.282,203.168a6.037,6.037,0,1,1,6.037-6.037A6.044,6.044,0,0,1,163.282,203.168Zm0-9.73a3.694,3.694,0,1,0,3.693,3.694A3.7,3.7,0,0,0,163.282,193.438Z" transform="translate(-157.245 -191.094)"/>
    </g>
    <g id="Group_670" data-name="Group 670" transform="translate(33.754 100.281)">
      <path id="Path_116569" data-name="Path 116569" d="M73.18,217.366a1.172,1.172,0,0,1-.683-2.124,6.939,6.939,0,0,1,4.065-1.311h3.892a6.944,6.944,0,0,1,4.011,1.273,1.172,1.172,0,1,1-1.348,1.918,4.612,4.612,0,0,0-2.664-.847H76.562a4.614,4.614,0,0,0-2.7.873A1.167,1.167,0,0,1,73.18,217.366Z" transform="translate(-72.007 -213.93)"/>
    </g>
    <g id="Group_671" data-name="Group 671" transform="translate(53.466 100.281)">
      <path id="Path_116570" data-name="Path 116570" d="M125.962,217.395a1.167,1.167,0,0,1-.689-.225,4.612,4.612,0,0,0-2.732-.9h-3.892a4.609,4.609,0,0,0-2.727.892,1.172,1.172,0,1,1-1.378-1.9,6.939,6.939,0,0,1,4.1-1.34h3.892a6.939,6.939,0,0,1,4.113,1.346,1.172,1.172,0,0,1-.691,2.119Z" transform="translate(-114.061 -213.93)"/>
    </g>
    <g id="Group_672" data-name="Group 672" transform="translate(73.252 100.281)">
      <path id="Path_116571" data-name="Path 116571" d="M168.143,217.4a1.165,1.165,0,0,1-.692-.227,4.611,4.611,0,0,0-2.742-.9h-3.892a4.612,4.612,0,0,0-2.7.869,1.172,1.172,0,1,1-1.363-1.906,6.941,6.941,0,0,1,4.058-1.306h3.892a6.934,6.934,0,0,1,4.127,1.356,1.172,1.172,0,0,1-.694,2.117Z" transform="translate(-156.27 -213.93)"/>
    </g>
  </g>
  <g id="singing" transform="translate(40.311 40.311)">
    <g id="Group_690" data-name="Group 690" transform="translate(0.693 1.905)">
      <g id="Group_674" data-name="Group 674" transform="translate(9.469)">
        <path id="Path_116572" data-name="Path 116572" d="M16,12.527a9.527,9.527,0,0,1,19.053,0v1.905a1.9,1.9,0,0,0-1.905-1.905H32.132a8.483,8.483,0,0,1-6.605-3.176,8.466,8.466,0,0,1-6.605,3.176H17.905A1.908,1.908,0,0,0,16,14.432Z" transform="translate(-16 -3)" fill="#656d78"/>
      </g>
      <g id="Group_675" data-name="Group 675" transform="translate(21.536 11.432)">
        <path id="Path_116573" data-name="Path 116573" d="M40.31,32.883l-1.55-.318-3.55-.724a3.075,3.075,0,0,0-.21-.292V30.26a.637.637,0,0,1,.318-.553l.927-.527a6.342,6.342,0,0,0,3.2-5.513v-.762h.635A1.908,1.908,0,0,0,41.986,21l1.759,1.759a2.672,2.672,0,0,1,.781,1.893v.032a2.679,2.679,0,0,1-1.194,2.191l-.711.476v.5a3.8,3.8,0,0,1-1.7,3.169l-.21.14a3.791,3.791,0,0,1-.406,1.715Z" transform="translate(-35 -21)" fill="#656d78"/>
      </g>
      <g id="Group_676" data-name="Group 676" transform="translate(6.928 11.432)">
        <path id="Path_116574" data-name="Path 116574" d="M14.54,21a1.9,1.9,0,0,0,1.905,1.905h.635v.762a6.342,6.342,0,0,0,3.2,5.513l.927.527a.637.637,0,0,1,.318.553v1.289a2.481,2.481,0,0,0-.191.26l-1.62.114a7.156,7.156,0,0,0-1.181.178,7.408,7.408,0,0,0-2.242.915,3.8,3.8,0,0,1-.483-1.855l-.21-.14a3.8,3.8,0,0,1-1.7-3.169v-.5l-.711-.476a2.674,2.674,0,0,1-.413-4.116Z" transform="translate(-12 -21)" fill="#656d78"/>
      </g>
      <g id="Group_677" data-name="Group 677" transform="translate(12.644 22.273)">
        <path id="Path_116575" data-name="Path 116575" d="M34.337,51.255v1.378H21V51.255a4.367,4.367,0,0,1,.432-1.886v-.006l4.649-1.988v1.448a1.279,1.279,0,0,0,1.27,1.27,1.274,1.274,0,0,0,1.27-1.27V44.688a2.189,2.189,0,0,0-.432-1.315l1.689-2.026a2.807,2.807,0,0,0,.648-1.791A2.764,2.764,0,0,0,30.1,38.07l3.55.724.248.864a11.467,11.467,0,0,1,.438,3.15c0,.146,0,.3-.013.445a11.427,11.427,0,0,1-.807,3.811l-.451,1.124A4.341,4.341,0,0,1,34.337,51.255Z" transform="translate(-21 -38.07)" fill="#fce677"/>
      </g>
      <g id="Group_678" data-name="Group 678" transform="translate(12.644 22.242)">
        <path id="Path_116576" data-name="Path 116576" d="M24.823,41.329l1,1.2a2.206,2.206,0,0,0-1.518,1.435l-.133.394-2.941.737A11.226,11.226,0,0,1,21,42.79a11.466,11.466,0,0,1,.438-3.15l.381-1.327A7.157,7.157,0,0,1,23,38.134l1.62-.114a2.806,2.806,0,0,0,.2,3.309Z" transform="translate(-21 -38.02)" fill="#fcd770"/>
      </g>
      <g id="Group_679" data-name="Group 679" transform="translate(17.725 29.025)">
        <path id="Path_116577" data-name="Path 116577" d="M31.54,48.7v4a1.274,1.274,0,0,1-1.27,1.27A1.279,1.279,0,0,1,29,52.7V51.253l1.2-.514A2.216,2.216,0,0,0,31.54,48.7Z" transform="translate(-29 -48.7)" fill="#969faa"/>
      </g>
      <g id="Group_680" data-name="Group 680" transform="translate(15.82 20.959)">
        <path id="Path_116578" data-name="Path 116578" d="M31.926,37.315a2.764,2.764,0,0,1,.426,1.486,2.807,2.807,0,0,1-.648,1.791l-1.689,2.026a2.073,2.073,0,0,0-.216-.254,2.225,2.225,0,0,0-2.147-.572l-1-1.2a2.806,2.806,0,0,1-.2-3.309,2.481,2.481,0,0,1,.191-.26v-.006A2.8,2.8,0,0,1,28.8,36h.749a2.788,2.788,0,0,1,1.982.819c.064.064.127.127.184.2v.006A3.076,3.076,0,0,1,31.926,37.315Z" transform="translate(-26 -36)" fill="#ccd1d9"/>
      </g>
      <g id="Group_681" data-name="Group 681" transform="translate(7.563 22.534)">
        <path id="Path_116579" data-name="Path 116579" d="M25.7,44.837v.133a2.216,2.216,0,0,1-1.34,2.039l-1.2.514-4.649,1.988v.006l-1.105.47a3.231,3.231,0,0,1-1.245.254A3.166,3.166,0,0,1,13,47.079V45.9a7.62,7.62,0,0,1,3.658-6.51A7.408,7.408,0,0,1,18.9,38.48l-.381,1.327a11.466,11.466,0,0,0-.438,3.15,11.226,11.226,0,0,0,.235,2.305l2.941-.737.133-.394a2.214,2.214,0,0,1,3.665-.864,2.073,2.073,0,0,1,.216.254,2.189,2.189,0,0,1,.432,1.315Z" transform="translate(-13 -38.48)" fill="#f0d0b4"/>
      </g>
      <g id="Group_682" data-name="Group 682" transform="translate(25.296 12.067)">
        <path id="Path_116580" data-name="Path 116580" d="M41.606,37.389h-.013c.013-.146.013-.3.013-.445a11.467,11.467,0,0,0-.438-3.15l-.248-.864,1.55.318,4.033.819,1.454-6.986-.9-.9a1.274,1.274,0,0,1-.375-.9v-.108a.81.81,0,0,1,.006-.127,1.274,1.274,0,0,1,1.264-1.143V23.27A1.274,1.274,0,0,1,49.227,22H50.5a1.274,1.274,0,0,1,1.27,1.27V33.705a4.8,4.8,0,0,1-5.716,4.719Z" transform="translate(-40.92 -22)" fill="#f0d0b4"/>
      </g>
      <g id="Group_683" data-name="Group 683" transform="translate(25.982 9.527)">
        <path id="Path_116581" data-name="Path 116581" d="M42.635,18a1.905,1.905,0,0,1,0,3.811H42V18Z" transform="translate(-42 -18)" fill="#f0d0b4"/>
      </g>
      <g id="Group_684" data-name="Group 684" transform="translate(12.009 6.351)">
        <path id="Path_116582" data-name="Path 116582" d="M33.972,16.176v4.573a6.342,6.342,0,0,1-3.2,5.513l-.927.527a.637.637,0,0,0-.318.553v1.283c-.057-.07-.121-.133-.184-.2a2.788,2.788,0,0,0-1.982-.819h-.749a2.8,2.8,0,0,0-2.166,1.016V27.341a.637.637,0,0,0-.318-.553l-.927-.527A6.342,6.342,0,0,1,20,20.748V16.176h.381A8.466,8.466,0,0,0,26.986,13a8.483,8.483,0,0,0,6.605,3.176Z" transform="translate(-20 -13)" fill="#f0d0b4"/>
      </g>
      <g id="Group_685" data-name="Group 685" transform="translate(9.469 9.527)">
        <path id="Path_116583" data-name="Path 116583" d="M18.54,18v3.811h-.635a1.905,1.905,0,0,1,0-3.811Z" transform="translate(-16 -18)" fill="#f0d0b4"/>
      </g>
      <g id="Group_686" data-name="Group 686" transform="translate(0 33.78)">
        <circle id="Ellipse_114" data-name="Ellipse 114" cx="1.5" cy="1.5" r="1.5" fill="#a477fc"/>
      </g>
      <g id="Group_687" data-name="Group 687" transform="translate(2.483 6.351)">
        <path id="Path_116584" data-name="Path 116584" d="M7.388,14.867v.013a1.288,1.288,0,0,1-1.118.661,1.27,1.27,0,1,1,1.27-1.27A1.193,1.193,0,0,1,7.388,14.867Z" transform="translate(-5 -13)" fill="#a477fc"/>
      </g>
      <g id="Group_688" data-name="Group 688" transform="translate(33 4.779)">
        <circle id="Ellipse_115" data-name="Ellipse 115" cx="1" cy="1" r="1" fill="#a477fc"/>
      </g>
      <g id="Group_689" data-name="Group 689" transform="translate(16.455 15.878)">
        <path id="Path_116585" data-name="Path 116585" d="M27,28h5.081A2.54,2.54,0,1,1,27,28Z" transform="translate(-27 -28)" fill="#ff826e"/>
      </g>
    </g>
    <g id="Group_691" data-name="Group 691">
      <path id="Path_116586" data-name="Path 116586" d="M39.58,14.067H38.31A1.908,1.908,0,0,0,36.4,15.972v.109a1.9,1.9,0,0,0-.356.176,3.3,3.3,0,0,0-.614-.883L33.864,13.8V12.162a10.162,10.162,0,0,0-20.324,0V13.8L11.97,15.375a3.311,3.311,0,0,0,.5,5.1l.431.287v.161a4.439,4.439,0,0,0,1.919,3.658,4.452,4.452,0,0,0,.3,1.292A8.269,8.269,0,0,0,11.635,32.6V33.77a3.8,3.8,0,0,0,3.8,3.8,3.762,3.762,0,0,0,1.354-.255,4.886,4.886,0,0,0-.07.781v2.015H31.324V38.092a5.007,5.007,0,0,0-1.168-3.2l.3-.757a12.042,12.042,0,0,0,.8-3.258l3.752.871a5.265,5.265,0,0,0,1.031.1,5.451,5.451,0,0,0,5.444-5.444V15.972a1.908,1.908,0,0,0-1.905-1.905ZM36.348,19.99,35.09,26.021l-2.675-.546a4.408,4.408,0,0,0,.166-.9A4.438,4.438,0,0,0,34.5,20.919v-.161l.431-.287a3.306,3.306,0,0,0,.94-.96Zm-1.811-3.717a2.041,2.041,0,0,1-.311,3.141l-1,.664v.841a3.169,3.169,0,0,1-1.414,2.642l-.491.328v.34a3.165,3.165,0,0,1-.161.991l-4.284-.874V23.327L27.8,22.8a7,7,0,0,0,3.52-6.065v-.126h0a2.532,2.532,0,0,0,2.219-1.329ZM23.067,34.628l.813-.349a2.852,2.852,0,0,0,.457-.253v1.635a.635.635,0,1,1-1.27,0Zm1.423-5.35a2.823,2.823,0,0,0-1.732-.6,2.89,2.89,0,0,0-.325.025l-.77-.925a2.162,2.162,0,0,1,1.661-3.546h.755a2.162,2.162,0,0,1,1.661,3.547Zm-6.383,1.888a10.4,10.4,0,0,1,.3-4.495l.272-.953a7.035,7.035,0,0,1,.719-.091l.6-.043a3.4,3.4,0,0,0,.7,3.005l.48.576a2.842,2.842,0,0,0-1.113,1.458l-.02.06Zm8.142-8.941a1.274,1.274,0,0,0-.64,1.1,3.4,3.4,0,0,0-1.528-.364h-.755a3.406,3.406,0,0,0-1.528.363,1.274,1.274,0,0,0-.64-1.1l-.925-.528a5.729,5.729,0,0,1-2.88-4.962V12.793A9.04,9.04,0,0,0,23.7,9.954a9.043,9.043,0,0,0,6.351,2.84v3.94a5.727,5.727,0,0,1-2.88,4.962ZM31.324,12.8a1.27,1.27,0,0,1,0,2.54h0ZM23.7,3.27a8.9,8.9,0,0,1,8.877,8.6,2.508,2.508,0,0,0-1.256-.346H30.309A7.787,7.787,0,0,1,24.2,8.589l-.5-.62-.5.62A7.788,7.788,0,0,1,17.1,11.527H16.081a2.508,2.508,0,0,0-1.256.346A8.9,8.9,0,0,1,23.7,3.27ZM16.082,15.337a1.27,1.27,0,1,1,0-2.54Zm0,8.892v-.34l-.491-.328a3.168,3.168,0,0,1-1.414-2.642v-.841l-1-.664a2.041,2.041,0,0,1-.311-3.141l.994-.994a2.532,2.532,0,0,0,2.219,1.329h0v.126A7,7,0,0,0,19.6,22.8l.925.528v.946L19.3,24.36a8.175,8.175,0,0,0-3.065.838,3.193,3.193,0,0,1-.158-.97ZM15.432,36.3a2.53,2.53,0,0,1-2.527-2.527V32.6a7.012,7.012,0,0,1,4.326-6.45l-.05.177a11.642,11.642,0,0,0-.31,5.152l-1.863.466-.766,1.531,1.136.568.5-1.009,5.136-1.284.24-.722a1.579,1.579,0,0,1,3.078.5v.136a1.577,1.577,0,0,1-.957,1.451l-6.953,2.98A2.506,2.506,0,0,1,15.432,36.3Zm13.537-.821a3.727,3.727,0,0,1,1.084,2.617v.744H17.986v-.744a3.712,3.712,0,0,1,.286-1.409L21.8,35.172v.489a1.905,1.905,0,0,0,3.811,0V31.524a2.823,2.823,0,0,0-.3-1.245l1.408-1.689a3.441,3.441,0,0,0,.8-2.2,3.4,3.4,0,0,0-.061-.633l2.043.417.142.5a10.813,10.813,0,0,1-.358,6.991l-.607,1.516Zm11.246-9.069a4.179,4.179,0,0,1-4.174,4.174,3.97,3.97,0,0,1-.763-.073l-3.957-.919a12.089,12.089,0,0,0-.429-3.127l4.238.864.69,1.6,1.166-.5L36.246,26.7l1.485-7.126-1.141-1.141a.636.636,0,0,1-.186-.448v-.109a.635.635,0,0,1,.635-.635h.635v-1.27a.635.635,0,0,1,.635-.635h1.27a.635.635,0,0,1,.635.635Z" transform="translate(-4.014 -0.73)"/>
      <path id="Path_116587" data-name="Path 116587" d="M26,27.635a3.176,3.176,0,1,0,6.351,0V27H26Zm4.972.635a1.906,1.906,0,0,1-3.593,0Z" transform="translate(-9.487 -9.852)"/>
      <path id="Path_116588" data-name="Path 116588" d="M2.54,48.905v3.928a1.884,1.884,0,0,0-.635-.117,1.905,1.905,0,1,0,1.905,1.905V48.905a.635.635,0,0,1,.635-.635H6.351V47H4.446A1.908,1.908,0,0,0,2.54,48.905Zm-.635,6.351a.635.635,0,1,1,.635-.635A.635.635,0,0,1,1.905,55.256Z" transform="translate(0 -17.15)" fill="#fce677"/>
      <path id="Path_116589" data-name="Path 116589" d="M56.446,0A1.908,1.908,0,0,0,54.54,1.905V5.833a1.884,1.884,0,0,0-.635-.117,1.905,1.905,0,1,0,1.905,1.905V1.905a.635.635,0,0,1,.635-.635h1.905V0Zm-2.54,8.256a.635.635,0,1,1,.635-.635A.635.635,0,0,1,53.905,8.256Z" transform="translate(-18.974)" fill="#fce677"/>
      <path id="Path_116590" data-name="Path 116590" d="M5.905,12a1.905,1.905,0,1,0,0,3.811c.049,0,.1-.011.144-.015L4.654,21.373l1.231.307L7.631,14.7a1.885,1.885,0,0,0,.18-.8A1.908,1.908,0,0,0,5.905,12ZM5.27,13.905a.635.635,0,1,1,.635.635A.635.635,0,0,1,5.27,13.905Z" transform="translate(-1.46 -4.379)" fill="#fce677"/>
      <ellipse id="Ellipse_116" data-name="Ellipse 116" cx="1" cy="0.5" rx="1" ry="0.5" transform="translate(15.693 12.685)"/>
      <ellipse id="Ellipse_117" data-name="Ellipse 117" cx="1" cy="0.5" rx="1" ry="0.5" transform="translate(21.693 12.685)"/>
      <path id="Path_116591" data-name="Path 116591" d="M30.121,23.744l.7-.351a1.27,1.27,0,0,0,.568-1.7l-.284-.568V20h-1.27v1.27a.637.637,0,0,0,.067.284l.351.7-.7.351Z" transform="translate(-10.784 -7.298)"/>
    </g>
  </g>
</svg>
