<svg xmlns="http://www.w3.org/2000/svg" width="120" height="120" viewBox="0 0 120 120">
  <g id="international" transform="translate(-1 -1)">
    <path id="Path_116391" data-name="Path 116391" d="M118.125,32A58.063,58.063,0,1,1,2,32Z" transform="translate(0.937 28.939)" fill="#d1be68"/>
    <path id="Path_116392" data-name="Path 116392" d="M75.124,32c0,32.1-13.02,58.124-29.062,58.124S17,64.1,17,32" transform="translate(14.938 28.939)" fill="#fce677"/>
    <path id="Path_116393" data-name="Path 116393" d="M93.43,61.437a57.913,57.913,0,0,0-82.84,0,57.913,57.913,0,0,0,82.84,0Z" transform="translate(8.99 40.188)" fill="#fce677"/>
    <path id="Path_116394" data-name="Path 116394" d="M31.249,14.625c-3.875,0-3.875,3.875-7.75,3.875s-3.875-3.875-7.75-3.875S11.875,18.5,8,18.5V6.875C11.875,6.875,11.875,3,15.75,3s3.875,3.875,7.75,3.875S27.375,3,31.249,3" transform="translate(6.562 1.875)" fill="#778dfc"/>
    <path id="Path_116395" data-name="Path 116395" d="M20,1h3.875V61.061H20Z" transform="translate(17.773)" fill="#a477fc"/>
    <path id="Path_116396" data-name="Path 116396" d="M44,14.625c3.875,0,3.875,3.875,7.75,3.875s3.875-3.875,7.75-3.875,3.875,3.875,7.75,3.875V6.875C63.375,6.875,63.375,3,59.5,3s-3.875,3.875-7.75,3.875S47.875,3,44,3" transform="translate(40.188 1.875)" fill="#778dfc"/>
    <path id="Path_116397" data-name="Path 116397" d="M42,1h3.875V61.061H42Z" transform="translate(38.352)" fill="#a477fc"/>
    <path id="Path_116398" data-name="Path 116398" d="M26,47.51V35.755A11.752,11.752,0,0,1,37.755,24H49.51A11.752,11.752,0,0,1,61.264,35.755V47.51" transform="translate(17.253 13.504)" fill="#fce677"/>
    <circle id="Ellipse_77" data-name="Ellipse 77" cx="8.747" cy="8.747" r="8.747" transform="translate(51.671 20.22)" fill="#fce677"/>
    <g id="Group_523" data-name="Group 523" transform="translate(6.812 34.194)">
      <path id="Path_116399" data-name="Path 116399" d="M4,39.5V31.75A7.748,7.748,0,0,1,11.75,24H19.5a7.748,7.748,0,0,1,7.75,7.75V39.5" transform="translate(-4 -12.676)" fill="#d1be68"/>
      <ellipse id="Ellipse_78" data-name="Ellipse 78" cx="6.123" cy="5.685" rx="6.123" ry="5.685" transform="translate(5.559 0)" fill="#d1be68"/>
      <path id="Path_116400" data-name="Path 116400" d="M48,39.5V31.75A7.748,7.748,0,0,1,55.75,24H63.5a7.748,7.748,0,0,1,7.75,7.75V39.5" transform="translate(37.126 -12.676)" fill="#d1be68"/>
      <circle id="Ellipse_79" data-name="Ellipse 79" cx="5.685" cy="5.685" r="5.685" transform="translate(91.155 0)" fill="#d1be68"/>
    </g>
    <path id="Path_116401" data-name="Path 116401" d="M119.065,31H2.935A1.942,1.942,0,0,0,1,32.937a60,60,0,1,0,120,0A1.942,1.942,0,0,0,119.065,31ZM61,89.124c-9.406,0-17.884-10.578-22.761-26.194a56.314,56.314,0,0,1,45.523,0C78.884,78.545,70.406,89.124,61,89.124Zm0-34.874a59.759,59.759,0,0,0-23.845,4.921,104.276,104.276,0,0,1-3.232-24.3H88.058a103.255,103.255,0,0,1-3.232,24.3,59.759,59.759,0,0,0-23.845-4.921ZM30.052,34.875a108.83,108.83,0,0,0,3.426,26.039,59.62,59.62,0,0,0-13.858,9.939A55.968,55.968,0,0,1,4.89,34.875ZM22.329,73.624a55.819,55.819,0,0,1,12.252-8.912c3.155,10,7.781,17.96,13.355,22.862A56.268,56.268,0,0,1,22.329,73.624ZM87.4,64.712a56.28,56.28,0,0,1,12.252,8.912,55.99,55.99,0,0,1-25.606,13.95c5.555-4.9,10.2-12.865,13.355-22.862Zm14.961,6.142A59.62,59.62,0,0,0,88.5,60.914a107.991,107.991,0,0,0,3.426-26.039H117.09A55.968,55.968,0,0,1,102.361,70.853Z" transform="translate(0 28.002)" fill="#a477fc"/>
    <path id="Path_116402" data-name="Path 116402" d="M10.937,35.625,9,31.75,10.937,24l1.937,7.75Z" transform="translate(7.5 21.511)" fill="#77cffc"/>
    <path id="Path_116404" data-name="Path 116404" d="M54.937,35.625,53,31.75,54.937,24l1.937,7.75Z" transform="translate(48.625 21.511)" fill="#77cffc"/>
  </g>
</svg>
