<svg xmlns="http://www.w3.org/2000/svg" width="150" height="150" viewBox="0 0 150 150">
  <path id="public-relation-3" d="M157.944,59.044a67.328,67.328,0,0,0-39.475,4.31,2.21,2.21,0,0,0-1.262,2.778l1.433,4.036c-5.888,0-10.779-1.5-15.911-3.086-1.561-.482-3.175-.98-4.835-1.441A22.194,22.194,0,0,0,76.549,70.7l-.72.66c-9.986,2.2-16.88,2.058-25.122-.612l1.641-4.62a2.21,2.21,0,0,0-1.262-2.778,67.326,67.326,0,0,0-39.475-4.31,2.243,2.243,0,0,0-1.832,2.184V116.5a2.256,2.256,0,0,0,2.285,2.228H32.042a2.281,2.281,0,0,0,2.159-1.5l.9-2.53c7.621,2.8,13.5,8.756,16.773,12.084.329.334.634.644.915.924L76.32,151.22a7.844,7.844,0,0,0,5.54,2.28h.05a7.984,7.984,0,0,0,5.614-2.261,7.632,7.632,0,0,0,1.96-3.17,9.374,9.374,0,0,0,10.974-1.483,8.821,8.821,0,0,0,2.633-5.384,9.494,9.494,0,0,0,2.524.338,9.235,9.235,0,0,0,6.491-2.614,8.816,8.816,0,0,0,2.67-5.824,9.339,9.339,0,0,0,8.369-2.43,8.784,8.784,0,0,0,.624-11.966,13.022,13.022,0,0,0,2.353-.689c2.348-.934,4.516-2,6.612-3.023.529-.259,1.044-.511,1.557-.759l1.062,2.991a2.281,2.281,0,0,0,2.159,1.5h19.981a2.256,2.256,0,0,0,2.285-2.228V61.228a2.243,2.243,0,0,0-1.832-2.184ZM30.416,114.271H14.346V63.079a62.5,62.5,0,0,1,32.976,3.586Zm89.5,13.252a4.7,4.7,0,0,1-6.521,0L99.019,113.19a2.325,2.325,0,0,0-3.23-.038,2.188,2.188,0,0,0-.039,3.15l13.108,13.1.008.007.011.012a4.422,4.422,0,0,1,0,6.358,4.7,4.7,0,0,1-6.52,0L87.371,120.849a2.325,2.325,0,0,0-3.23-.038,2.188,2.188,0,0,0-.039,3.15l13.108,13.1.01.009.01.01h0a4.436,4.436,0,0,1,0,6.358,4.7,4.7,0,0,1-6.521,0L74.437,127.254a2.325,2.325,0,0,0-3.23-.038,2.188,2.188,0,0,0-.039,3.15l13.108,13.1.01.009.01.01a3.2,3.2,0,0,1,0,4.607,3.4,3.4,0,0,1-2.406.956,3.253,3.253,0,0,1-2.3-.937L56.058,124.595c-.273-.272-.569-.574-.889-.9-3.557-3.611-9.936-10.083-18.573-13.21L49.212,74.963a45.212,45.212,0,0,0,14.332,2.381,51.148,51.148,0,0,0,6.2-.4l-5.287,4.847a11.564,11.564,0,0,0-3.865,8.719V112.9a2.256,2.256,0,0,0,2.285,2.228c9.846,0,20.03-6.072,20.03-16.235,0-3.508,2.836-6.015,5.009-7.748l24.9,24.262a12.467,12.467,0,0,0,4.055,2.652l3.015,3.074a4.467,4.467,0,0,1,.035,6.394Zm10.768-16.509c-2.018.988-4.1,2.011-6.287,2.879a7.635,7.635,0,0,1-8.357-1.642L89.676,86.561a2.327,2.327,0,0,0-3.135-.087c-.242.211-.574.472-.959.774-2.533,1.994-7.248,5.705-7.248,11.641a10.388,10.388,0,0,1-4.643,8.447,18.24,18.24,0,0,1-8.533,3.2V90.512a7.075,7.075,0,0,1,2.426-5.473L79.679,73.95a17.638,17.638,0,0,1,16.964-4.024c1.6.443,3.177.931,4.707,1.4,5.678,1.752,11.538,3.557,18.862,3.263l12.572,35.4c-.709.34-1.412.683-2.1,1.021Zm24.525,3.257h-16.07L122.232,66.666a62.491,62.491,0,0,1,32.976-3.586ZM31.632,55.212H62.56v6.3a2.256,2.256,0,0,0,2.285,2.228H104.71a2.256,2.256,0,0,0,2.285-2.228v-6.3h30.927a2.256,2.256,0,0,0,2.285-2.228V43.67a18.72,18.72,0,0,0-11.562-17.2,13.466,13.466,0,0,0,3.633-9.175,14.3,14.3,0,0,0-28.577,0,13.467,13.467,0,0,0,3.639,9.181A19.127,19.127,0,0,0,97.464,36a19.321,19.321,0,0,0-2.032-1,13.466,13.466,0,0,0,3.633-9.174,14.3,14.3,0,0,0-28.577,0A13.466,13.466,0,0,0,74.122,35a19.346,19.346,0,0,0-2.032,1,19.126,19.126,0,0,0-9.875-9.525,13.465,13.465,0,0,0,3.639-9.181,14.3,14.3,0,0,0-28.577,0,13.465,13.465,0,0,0,3.633,9.175,18.72,18.72,0,0,0-11.562,17.2v9.315a2.256,2.256,0,0,0,2.284,2.227Zm70.793,4.076h-35.3V52.2A14.369,14.369,0,0,1,78.576,38.245a14.742,14.742,0,0,0,12.4,0A14.369,14.369,0,0,1,102.425,52.2v7.087ZM117.989,7.956a9.543,9.543,0,0,1,9.719,9.334,9.727,9.727,0,0,1-19.439,0,9.543,9.543,0,0,1,9.72-9.334Zm-6.2,21.757a14.741,14.741,0,0,0,12.4,0A14.37,14.37,0,0,1,135.637,43.67v7.087h-28.7a18.518,18.518,0,0,0-5.709-11.96A14.624,14.624,0,0,1,111.79,29.713ZM84.777,16.488A9.544,9.544,0,0,1,94.5,25.823a9.727,9.727,0,0,1-19.439,0,9.543,9.543,0,0,1,9.72-9.334ZM51.565,7.956a9.543,9.543,0,0,1,9.719,9.334,9.727,9.727,0,0,1-19.439,0A9.543,9.543,0,0,1,51.565,7.956ZM33.917,43.67A14.37,14.37,0,0,1,45.364,29.712a14.741,14.741,0,0,0,12.4,0A14.624,14.624,0,0,1,68.33,38.8a18.516,18.516,0,0,0-5.709,11.96h-28.7Z" transform="translate(-9.777 -3.501)" fill="#fce677"/>
</svg>
