<svg xmlns="http://www.w3.org/2000/svg" xmlns:xlink="http://www.w3.org/1999/xlink" width="126" height="126" viewBox="0 0 126 126">
  <defs>
    <clipPath id="clip-path">
      <path id="path645" d="M0-682.665H126v126H0Z" transform="translate(0 682.665)"/>
    </clipPath>
  </defs>
  <g id="rating" transform="translate(0 -0.002)">
    <g id="g639" transform="translate(0 0.002)">
      <g id="g641">
        <g id="g643" clip-path="url(#clip-path)">
          <g id="g649" transform="translate(60.539 97.453)">
            <path id="path651" d="M-10.872,0A2.462,2.462,0,0,1-8.411,2.461a2.462,2.462,0,0,1-2.461,2.461,2.462,2.462,0,0,1-2.461-2.461A2.462,2.462,0,0,1-10.872,0" transform="translate(13.333 0)"/>
          </g>
          <g id="g653" transform="translate(90.809 65.461)">
            <path id="path655" d="M-108.724-54.362a12.306,12.306,0,0,1-12.3,12.3,12.306,12.306,0,0,1-12.3-12.3,12.306,12.306,0,0,1,12.3-12.3A12.306,12.306,0,0,1-108.724-54.362Z" transform="translate(133.333 66.667)" fill="none" stroke="#fce677" stroke-linecap="round" stroke-linejoin="round" stroke-width="4"/>
          </g>
          <g id="g657" transform="translate(2.461 94.992)">
            <path id="path659" d="M-147.864-108.724h-33.469v-4.922c0-10.872,9.553-19.688,20.426-19.688A21.054,21.054,0,0,1-144.082-125" transform="translate(181.333 133.333)" fill="none" stroke="#fce677" stroke-linecap="round" stroke-linejoin="round" stroke-width="4"/>
          </g>
          <g id="g661" transform="translate(86.288 94.992)">
            <path id="path663" d="M0-36.836a21.054,21.054,0,0,1,16.825-8.338c10.872,0,20.426,8.815,20.426,19.687v4.922H3.782" transform="translate(0 45.173)" fill="none" stroke="#fce677" stroke-linecap="round" stroke-linejoin="round" stroke-width="4"/>
          </g>
          <g id="g665" transform="translate(10.582 65.461)">
            <path id="path667" d="M-108.724-54.362a12.306,12.306,0,0,1-12.3,12.3,12.306,12.306,0,0,1-12.3-12.3,12.306,12.306,0,0,1,12.3-12.3A12.306,12.306,0,0,1-108.724-54.362Z" transform="translate(133.333 66.667)" fill="none" stroke="#fce677" stroke-linecap="round" stroke-linejoin="round" stroke-width="4"/>
          </g>
          <g id="g669" transform="translate(45.773 50.695)">
            <path id="path671" d="M-152.213-76.107A17.227,17.227,0,0,1-169.44-58.88a17.227,17.227,0,0,1-17.227-17.227A17.227,17.227,0,0,1-169.44-93.333,17.227,17.227,0,0,1-152.213-76.107Z" transform="translate(186.666 93.333)" fill="none" stroke="#fce677" stroke-linecap="round" stroke-linejoin="round" stroke-width="4"/>
          </g>
          <g id="g673" transform="translate(45.687 6.398)">
            <path id="path675" d="M-76.1,0l-5.323,10.885-11.9,1.728,8.613,8.394-2.033,11.854,10.644-5.6,10.646,5.6-2.035-11.854,8.613-8.394-11.9-1.728Z" transform="translate(93.32)" fill="none" stroke="#fce677" stroke-linecap="round" stroke-linejoin="round" stroke-width="4"/>
          </g>
          <g id="g677" transform="translate(92.396 28.547)">
            <path id="path679" d="M-54.177-85.446l7.577,3.982L-48.047-89.9l6.13-5.978-8.473-1.23-3.787-7.678-3.79,7.678-8.473,1.23,6.13,5.978-1.447,8.436Z" transform="translate(66.44 104.786)" fill="none" stroke="#fce677" stroke-linecap="round" stroke-linejoin="round" stroke-width="4"/>
          </g>
          <g id="g681" transform="translate(8.724 28.547)">
            <path id="path683" d="M-54.177-85.446l7.577,3.982L-48.047-89.9l6.13-5.978-8.473-1.23-3.787-7.678-3.79,7.678-8.473,1.23,6.13,5.978-1.447,8.436Z" transform="translate(66.44 104.786)" fill="none" stroke="#fce677" stroke-linecap="round" stroke-linejoin="round" stroke-width="4"/>
          </g>
          <g id="g685" transform="translate(35.93 90.07)">
            <path id="path687" d="M-239.192-130.468h-54.141v-2.461a26.956,26.956,0,0,1,3.782-13.811A27.061,27.061,0,0,1-266.262-160a26.977,26.977,0,0,1,19.141,7.929,27.206,27.206,0,0,1,4.147,5.33,26.956,26.956,0,0,1,3.782,13.811Z" transform="translate(293.333 160)" fill="none" stroke="#fce677" stroke-linecap="round" stroke-linejoin="round" stroke-width="4"/>
          </g>
          <g id="g689" transform="translate(72.433 102.732)">
            <path id="path691" d="M0,0A17.34,17.34,0,0,1,6.13,7.026" fill="none" stroke="#fce677" stroke-linecap="round" stroke-linejoin="round" stroke-width="4"/>
          </g>
        </g>
      </g>
    </g>
  </g>
</svg>
