<svg xmlns="http://www.w3.org/2000/svg" width="120" height="120" viewBox="0 0 120 120">
  <g id="Group_769" data-name="Group 769" transform="translate(-220 -4240.104)">
    <g id="Group_510" data-name="Group 510" transform="translate(220 4240.104)">
      <g id="mandap" transform="translate(0 0)">
        <g id="Group_467" data-name="Group 467" transform="translate(41.696 24.519)">
          <path id="Path_116205" data-name="Path 116205" d="M214.207,132.532v-9.667h-.241a4.186,4.186,0,0,1-3.808-2.46l-.336-.743-.122.806a6.084,6.084,0,0,1-6.018,5.169,6.12,6.12,0,0,1-1.8-.27l-.191-.059-.094.176a6.093,6.093,0,0,1-10.777,0l-.094-.176-.191.059a6.12,6.12,0,0,1-1.8.27,6.084,6.084,0,0,1-6.018-5.169l-.122-.806-.336.743a4.186,4.186,0,0,1-3.808,2.46h-.241v9.667a15.285,15.285,0,0,1-.3,3.039,11.711,11.711,0,0,0,10.577-2.563,11.7,11.7,0,0,0,15.453,0,11.711,11.711,0,0,0,10.577,2.563A15.285,15.285,0,0,1,214.207,132.532Z" transform="translate(-177.904 -119.663)" fill="#ffe177"/>
        </g>
        <g id="Group_479" data-name="Group 479" transform="translate(15.889 26.202)">
          <g id="Group_471" data-name="Group 471" transform="translate(61.869 0)">
            <g id="Group_468" data-name="Group 468">
              <path id="Path_116206" data-name="Path 116206" d="M347.3,153.29h9.445a2.979,2.979,0,0,1,.857-2.42,3.03,3.03,0,0,1,.417-.346l.1-.072V127.541l-.447.725a4.2,4.2,0,0,1-7.284-.238l-.093-.176-.191.059a4.213,4.213,0,0,1-1.24.186,4.167,4.167,0,0,1-2.966-1.228c-.056-.056-.109-.115-.161-.174l-.18-.2-.18.2c-.053.059-.106.118-.162.174a4.167,4.167,0,0,1-2.966,1.228,4.221,4.221,0,0,1-1.24-.186l-.191-.059-.093.176a4.2,4.2,0,0,1-7.421,0l-.093-.176-.191.059a4.213,4.213,0,0,1-1.24.186h-.012v9.666A15.529,15.529,0,0,0,347.3,153.29Z" transform="translate(-331.767 -126.492)" fill="#fce677"/>
            </g>
            <g id="Group_469" data-name="Group 469" transform="translate(12.646)">
              <path id="Path_116207" data-name="Path 116207" d="M398.035,152.954a2.976,2.976,0,0,1,.873-2.084,3.026,3.026,0,0,1,.417-.346l.1-.072V127.541l-.447.725a4.2,4.2,0,0,1-7.284-.238l-.093-.176-.191.059a4.213,4.213,0,0,1-1.24.186,4.167,4.167,0,0,1-2.966-1.228c-.056-.056-.109-.115-.162-.174l-.18-.2-.18.2c-.053.059-.106.118-.162.174a4.213,4.213,0,0,1-.8.623v10.27A15.533,15.533,0,0,0,398.035,152.954Z" transform="translate(-385.722 -126.492)" fill="#77cffc"/>
            </g>
            <path id="Path_116208" data-name="Path 116208" d="M375.177,272.331a2.98,2.98,0,0,1-.823-2.654H366.08a15.532,15.532,0,0,0-11.353,14.956v30.828H375.7V272.749l-.1-.072A3.016,3.016,0,0,1,375.177,272.331Z" transform="translate(-349.346 -236.118)" fill="#fce677"/>
            <path id="Path_116209" data-name="Path 116209" d="M427.252,272.331a2.979,2.979,0,0,1-.823-2.654h-3.686v45.784h5.03V272.749l-.1-.072A3.02,3.02,0,0,1,427.252,272.331Z" transform="translate(-401.421 -236.118)" fill="#ffe5c2"/>
            <path id="Path_116210" data-name="Path 116210" d="M401.333,299.239a1.758,1.758,0,0,0,3.516,0V269.677h-3.516Z" transform="translate(-385.029 -236.118)" fill="#ffe5c2"/>
            <g id="Group_470" data-name="Group 470" transform="translate(6.995 26.529)">
              <path id="Path_116211" data-name="Path 116211" d="M365.246,239.682a3.632,3.632,0,1,0,0,7.265h14.346a3.024,3.024,0,0,1,.116-.573l.059-.191-.177-.093a2.986,2.986,0,0,1,0-5.281l.177-.094-.059-.191a3.008,3.008,0,0,1-.132-.842Z" transform="translate(-361.614 -239.682)" fill="#a477fc"/>
            </g>
            <path id="Path_116212" data-name="Path 116212" d="M415.74,243.448a2.983,2.983,0,0,1,1.592-2.641l.176-.093-.059-.191a3,3,0,0,1-.132-.842h-4.832a3,3,0,0,0,.132.842l.059.191-.177.093a2.986,2.986,0,0,0,0,5.281l.177.093-.059.191a3.027,3.027,0,0,0-.116.573h4.832a3.021,3.021,0,0,1,.116-.573l.059-.191-.177-.093A2.983,2.983,0,0,1,415.74,243.448Z" transform="translate(-392.359 -213.152)" fill="#8d59f4"/>
          </g>
          <g id="Group_478" data-name="Group 478" transform="translate(0 0)">
            <g id="Group_472" data-name="Group 472" transform="translate(0)">
              <path id="Path_116213" data-name="Path 116213" d="M78.618,153.292a15.529,15.529,0,0,0,15.529-15.529V128.1h-.012a4.222,4.222,0,0,1-1.24-.186l-.191-.059-.093.176a4.2,4.2,0,0,1-7.421,0l-.093-.176-.191.059a4.213,4.213,0,0,1-1.24.186,4.167,4.167,0,0,1-2.966-1.228c-.057-.057-.109-.115-.162-.174l-.18-.2-.18.2c-.053.059-.106.118-.162.174a4.165,4.165,0,0,1-2.966,1.228,4.215,4.215,0,0,1-1.24-.186l-.191-.059-.093.176a4.195,4.195,0,0,1-7.284.238l-.447-.725v22.912l.1.072a2.968,2.968,0,0,1,1.275,2.765h9.445Z" transform="translate(-67.795 -126.494)" fill="#fce677"/>
            </g>
            <g id="Group_474" data-name="Group 474" transform="translate(4.437 1.359)">
              <g id="Group_473" data-name="Group 473">
                <path id="Path_116214" data-name="Path 116214" d="M108.628,132.536a4.221,4.221,0,0,1-1.24-.186l-.191-.059-.093.176a4.2,4.2,0,0,1-4.851,2.08V142.2A15.529,15.529,0,0,1,86.724,157.73h6.387A15.529,15.529,0,0,0,108.64,142.2v-9.665Z" transform="translate(-86.724 -132.291)" fill="#fce677"/>
              </g>
            </g>
            <g id="Group_475" data-name="Group 475" transform="translate(0 0)">
              <path id="Path_116215" data-name="Path 116215" d="M81.5,137.762v-10.27a4.209,4.209,0,0,1-.8-.623c-.057-.057-.109-.115-.162-.174l-.18-.2-.18.2c-.053.059-.106.118-.162.174A4.165,4.165,0,0,1,77.05,128.1a4.214,4.214,0,0,1-1.24-.186l-.191-.059-.093.176a4.195,4.195,0,0,1-7.284.238l-.447-.725v22.912l.1.072a2.964,2.964,0,0,1,1.29,2.43A15.533,15.533,0,0,0,81.5,137.762Z" transform="translate(-67.795 -126.494)" fill="#77cffc"/>
            </g>
            <path id="Path_116216" data-name="Path 116216" d="M77.413,269.677H69.138a2.968,2.968,0,0,1-1.24,3l-.1.072v42.712H88.766V284.633a15.532,15.532,0,0,0-11.353-14.956Z" transform="translate(-67.794 -236.118)" fill="#fce677"/>
            <g id="Group_476" data-name="Group 476" transform="translate(10.048 33.688)">
              <path id="Path_116217" data-name="Path 116217" d="M110.667,270.229v4.077A15.465,15.465,0,0,1,115,285.056v30.828h6.594V285.056A15.53,15.53,0,0,0,110.667,270.229Z" transform="translate(-110.667 -270.229)" fill="#fce677"/>
            </g>
            <path id="Path_116218" data-name="Path 116218" d="M95.667,269.677v29.562a1.758,1.758,0,1,0,3.516,0V269.677Z" transform="translate(-89.134 -236.118)" fill="#ffe5c2"/>
            <g id="Group_477" data-name="Group 477" transform="translate(1.204 26.528)">
              <path id="Path_116219" data-name="Path 116219" d="M72.99,240.524l-.059.191.177.094a2.986,2.986,0,0,1,0,5.281l-.177.093.059.191a3.005,3.005,0,0,1,.116.573H87.452a3.632,3.632,0,1,0,0-7.265H73.122a3.01,3.01,0,0,1-.132.842Z" transform="translate(-72.931 -239.682)" fill="#fce677"/>
            </g>
            <path id="Path_116220" data-name="Path 116220" d="M118.862,239.682h-4.906a3.632,3.632,0,1,1,0,7.265h4.906a3.632,3.632,0,1,0,0-7.265Z" transform="translate(-103.137 -213.154)" fill="#fce677"/>
          </g>
        </g>
        <g id="Group_484" data-name="Group 484" transform="translate(5.65 24.128)">
          <g id="Group_480" data-name="Group 480" transform="translate(0 0)">
            <path id="Path_116221" data-name="Path 116221" d="M25.144,143.417a3,3,0,0,1,.884.133l.185.057.091-.171a2.993,2.993,0,0,1,5.293,0l.091.171.185-.057a3,3,0,0,1,.884-.133,2.968,2.968,0,0,1,1.831.628V121.324l-.024-.046-.191.059a4.213,4.213,0,0,1-1.24.186,4.188,4.188,0,0,1-4.12-3.419l-.037-.2H24.108v25.7A2.989,2.989,0,0,1,25.144,143.417Z" transform="translate(-24.108 -117.907)" fill="#fce677"/>
            <path id="Path_116222" data-name="Path 116222" d="M32.758,282.707a3,3,0,0,1-.884-.133l-.185-.057-.091.171a2.993,2.993,0,0,1-5.293,0l-.091-.171-.185.057a2.986,2.986,0,0,1-1.92-.054v19.151H34.589V282.079a2.967,2.967,0,0,1-1.831.628Z" transform="translate(-24.108 -243.601)" fill="#fce677"/>
          </g>
          <g id="Group_481" data-name="Group 481" transform="translate(5.434 1.585)">
            <path id="Path_116223" data-name="Path 116223" d="M49.348,148.613l.091.171.185-.057a3,3,0,0,1,.884-.133,2.968,2.968,0,0,1,1.831.628V126.5l-.024-.046-.191.059a4.214,4.214,0,0,1-1.24.186,4.178,4.178,0,0,1-3.591-2.031v22.406A2.991,2.991,0,0,1,49.348,148.613Z" transform="translate(-47.292 -124.67)" fill="#d1be68"/>
            <path id="Path_116224" data-name="Path 116224" d="M50.509,282.707a3,3,0,0,1-.884-.133l-.185-.057-.091.171a2.989,2.989,0,0,1-2.056,1.536v17.446H52.34V282.079a2.966,2.966,0,0,1-1.83.628Z" transform="translate(-47.293 -245.186)" fill="#d1be68"/>
          </g>
          <g id="Group_482" data-name="Group 482" transform="translate(98.218 0)">
            <path id="Path_116225" data-name="Path 116225" d="M445,143.417a3,3,0,0,1,.884.133l.185.057.091-.171a2.993,2.993,0,0,1,5.293,0l.091.171.185-.057a2.987,2.987,0,0,1,1.92.054v-25.7h-4.868l-.037.2a4.188,4.188,0,0,1-4.12,3.419,4.214,4.214,0,0,1-1.24-.186l-.191-.059-.024.046v22.721A2.97,2.97,0,0,1,445,143.417Z" transform="translate(-443.173 -117.907)" fill="#fce677"/>
            <path id="Path_116226" data-name="Path 116226" d="M452.62,282.707h0a3,3,0,0,1-.884-.133l-.185-.057-.091.171a2.993,2.993,0,0,1-5.293,0l-.091-.171-.185.057a3,3,0,0,1-.884.133,2.968,2.968,0,0,1-1.831-.628v19.592h10.481V282.52A2.985,2.985,0,0,1,452.62,282.707Z" transform="translate(-443.175 -243.601)" fill="#fce677"/>
          </g>
          <g id="Group_483" data-name="Group 483" transform="translate(103.704 0)">
            <path id="Path_116227" data-name="Path 116227" d="M466.73,141.839a2.99,2.99,0,0,1,2.647,1.6l.091.171.185-.057a2.986,2.986,0,0,1,1.92.054v-25.7H466.7l-.037.2c-.024.128-.055.253-.091.377v23.364C466.628,141.842,466.679,141.839,466.73,141.839Z" transform="translate(-466.577 -117.907)" fill="#d1be68"/>
            <path id="Path_116228" data-name="Path 116228" d="M470.537,284.14h0a3,3,0,0,1-.885-.133l-.185-.057-.091.171a2.99,2.99,0,0,1-2.647,1.6c-.051,0-.1,0-.153-.005V303.1h5V283.953A2.986,2.986,0,0,1,470.537,284.14Z" transform="translate(-466.577 -245.034)" fill="#d1be68"/>
          </g>
        </g>
        <g id="Group_489" data-name="Group 489" transform="translate(5.65 82.018)">
          <g id="Group_485" data-name="Group 485">
            <path id="Path_116229" data-name="Path 116229" d="M24.108,364.642H34.589v23.527H24.108Z" transform="translate(-24.108 -364.642)" fill="#a477fc"/>
          </g>
          <g id="Group_486" data-name="Group 486" transform="translate(5.434)">
            <path id="Path_116230" data-name="Path 116230" d="M47.293,364.642H52.34v23.527H47.293Z" transform="translate(-47.293 -364.642)" fill="#8d59f4"/>
          </g>
          <g id="Group_487" data-name="Group 487" transform="translate(98.219)">
            <path id="Path_116231" data-name="Path 116231" d="M443.175,364.642h10.481v23.527H443.175Z" transform="translate(-443.175 -364.642)" fill="#a477fc"/>
          </g>
          <g id="Group_488" data-name="Group 488" transform="translate(103.704)">
            <path id="Path_116232" data-name="Path 116232" d="M466.577,364.642h5v23.527h-5Z" transform="translate(-466.577 -364.642)" fill="#8d59f4"/>
          </g>
        </g>
        <g id="Group_492" data-name="Group 492" transform="translate(0 12.213)">
          <g id="Group_490" data-name="Group 490" transform="translate(0 0)">
            <path id="Path_116233" data-name="Path 116233" d="M10.668,77.327l.059-.191-.177-.094a4.2,4.2,0,0,1,0-7.421l.177-.094-.059-.191a4.2,4.2,0,0,1-.1-2.059H2.415A2.414,2.414,0,0,0,0,69.693v7.279a2.415,2.415,0,0,0,2.415,2.415h8.149A4.2,4.2,0,0,1,10.668,77.327Z" transform="translate(0 -67.279)" fill="#a477fc"/>
          </g>
          <g id="Group_491" data-name="Group 491" transform="translate(109.273 0)">
            <path id="Path_116234" data-name="Path 116234" d="M474.544,67.278H466.4a4.2,4.2,0,0,1-.1,2.059l-.059.191.177.094a4.2,4.2,0,0,1,0,7.421l-.177.094.059.191a4.2,4.2,0,0,1,.1,2.059h8.149a2.414,2.414,0,0,0,2.415-2.415V69.693A2.414,2.414,0,0,0,474.544,67.278Z" transform="translate(-466.232 -67.278)" fill="#a477fc"/>
          </g>
        </g>
        <g id="Group_493" data-name="Group 493" transform="translate(0 105.303)">
          <path id="Path_116235" data-name="Path 116235" d="M118.793,471.688H1.207A1.207,1.207,0,0,1,0,470.481V465.2a1.207,1.207,0,0,1,1.207-1.207H118.793A1.207,1.207,0,0,1,120,465.2v5.282A1.207,1.207,0,0,1,118.793,471.688Z" transform="translate(0 -463.992)" fill="#af66da"/>
        </g>
        <g id="Group_494" data-name="Group 494" transform="translate(0 105.304)">
          <path id="Path_116236" data-name="Path 116236" d="M118.793,463.992h-7.364v2.65a1.207,1.207,0,0,1-1.207,1.207H0v2.632a1.207,1.207,0,0,0,1.207,1.207H118.793A1.207,1.207,0,0,0,120,470.481V465.2A1.207,1.207,0,0,0,118.793,463.992Z" transform="translate(0 -463.992)" fill="#9857bd"/>
        </g>
        <g id="Group_496" data-name="Group 496" transform="translate(8.072 6.428)">
          <path id="Path_116237" data-name="Path 116237" d="M410.486,54.434a4.437,4.437,0,0,0-2.366-3.924,4.437,4.437,0,0,0-5.549-5.549,4.437,4.437,0,0,0-7.848,0,4.4,4.4,0,0,0-4.771,1.466,4.2,4.2,0,0,1,.858,4.014l-.057.185.171.091a4.2,4.2,0,0,1,0,7.433l-.171.091.057.185a4.2,4.2,0,0,1-.858,4.014,4.533,4.533,0,0,0,.323.364,4.437,4.437,0,0,0,4.447,1.1,4.437,4.437,0,0,0,7.848,0,4.437,4.437,0,0,0,5.549-5.549A4.437,4.437,0,0,0,410.486,54.434Z" transform="translate(-306.629 -42.595)" fill="#fce677"/>
          <g id="Group_495" data-name="Group 495" transform="translate(88.413 0)">
            <path id="Path_116238" data-name="Path 116238" d="M427.112,54.435a4.437,4.437,0,0,0-2.366-3.924,4.437,4.437,0,0,0-5.549-5.549,4.436,4.436,0,0,0-7.529-.514,11.834,11.834,0,0,1,0,19.973,4.436,4.436,0,0,0,7.529-.514,4.437,4.437,0,0,0,5.549-5.549A4.437,4.437,0,0,0,427.112,54.435Z" transform="translate(-411.668 -42.596)" fill="#d1be68"/>
          </g>
          <path id="Path_116239" data-name="Path 116239" d="M54.114,58.428l.057-.185L54,58.151a4.2,4.2,0,0,1,0-7.433l.171-.091-.057-.185a4.2,4.2,0,0,1,.858-4.014,4.529,4.529,0,0,0-.323-.364,4.437,4.437,0,0,0-4.447-1.1,4.437,4.437,0,0,0-7.848,0A4.437,4.437,0,0,0,36.8,50.511a4.437,4.437,0,0,0,0,7.848,4.437,4.437,0,0,0,5.549,5.549,4.437,4.437,0,0,0,7.848,0,4.437,4.437,0,0,0,4.447-1.1,4.525,4.525,0,0,0,.323-.364A4.2,4.2,0,0,1,54.114,58.428Z" transform="translate(-34.439 -42.596)" fill="#fce677"/>
          <path id="Path_116240" data-name="Path 116240" d="M81.011,58.429l.057-.185-.171-.091a4.2,4.2,0,0,1,0-7.433l.171-.091-.057-.185a4.2,4.2,0,0,1,.858-4.014,4.406,4.406,0,0,0-4.77-1.466,4.436,4.436,0,0,0-7.529-.514,11.834,11.834,0,0,1,0,19.973,4.436,4.436,0,0,0,7.529-.514,4.437,4.437,0,0,0,4.447-1.1,4.488,4.488,0,0,0,.323-.364A4.2,4.2,0,0,1,81.011,58.429Z" transform="translate(-61.336 -42.597)" fill="#d1be68"/>
        </g>
        <g id="Group_498" data-name="Group 498" transform="translate(25.156 6.428)">
          <path id="Path_116241" data-name="Path 116241" d="M128.8,59.04a4.433,4.433,0,0,0-.138-.636,6.094,6.094,0,0,1-.055-10.638,4.432,4.432,0,0,0-5.507-2.8,4.437,4.437,0,0,0-7.848,0,4.437,4.437,0,0,0-5.549,5.549,4.437,4.437,0,0,0,0,7.848,4.437,4.437,0,0,0,5.549,5.549,4.437,4.437,0,0,0,7.848,0,4.435,4.435,0,0,0,5.531-2.875,6.127,6.127,0,0,1,.169-1.992Z" transform="translate(-107.334 -42.596)" fill="#77cffc"/>
          <path id="Path_116242" data-name="Path 116242" d="M155.693,59.041a4.431,4.431,0,0,0-.138-.636,6.094,6.094,0,0,1-.055-10.638,4.433,4.433,0,0,0-5.507-2.8,4.436,4.436,0,0,0-7.529-.514,11.834,11.834,0,0,1,0,19.973,4.436,4.436,0,0,0,7.529-.514,4.435,4.435,0,0,0,5.531-2.875,6.126,6.126,0,0,1,.169-1.992Z" transform="translate(-134.231 -42.597)" fill="#778dfc"/>
          <path id="Path_116243" data-name="Path 116243" d="M334.555,54.434a4.437,4.437,0,0,0-2.365-3.924,4.437,4.437,0,0,0-5.549-5.549,4.437,4.437,0,0,0-7.848,0,4.433,4.433,0,0,0-5.507,2.8,6.094,6.094,0,0,1-.055,10.638,4.435,4.435,0,0,0-.138.636,6.12,6.12,0,0,1,.168,1.992,4.435,4.435,0,0,0,5.531,2.875,4.437,4.437,0,0,0,7.848,0,4.437,4.437,0,0,0,5.549-5.549A4.437,4.437,0,0,0,334.555,54.434Z" transform="translate(-264.868 -42.595)" fill="#77cffc"/>
          <g id="Group_497" data-name="Group 497" transform="translate(54.243 0)">
            <path id="Path_116244" data-name="Path 116244" d="M354.215,54.435a4.437,4.437,0,0,0-2.366-3.924,4.437,4.437,0,0,0-5.549-5.549,4.436,4.436,0,0,0-7.529-.514,11.834,11.834,0,0,1,0,19.973,4.436,4.436,0,0,0,7.529-.514,4.437,4.437,0,0,0,5.549-5.549A4.437,4.437,0,0,0,354.215,54.435Z" transform="translate(-338.771 -42.596)" fill="#778dfc"/>
          </g>
        </g>
        <g id="Group_503" data-name="Group 503" transform="translate(1.883 47.832)">
          <g id="Group_499" data-name="Group 499" transform="translate(99.013)">
            <path id="Path_116245" data-name="Path 116245" d="M447.713,227.627a3.227,3.227,0,0,0-1.72-2.854,5.578,5.578,0,0,0-9.743-4.036,3.227,3.227,0,0,0-4.036,4.036,3.227,3.227,0,0,0,0,5.707,5.578,5.578,0,0,0,9.743,4.036,3.227,3.227,0,0,0,4.036-4.036A3.226,3.226,0,0,0,447.713,227.627Z" transform="translate(-430.493 -219.017)" fill="#a477fc"/>
          </g>
          <g id="Group_500" data-name="Group 500" transform="translate(105.103 0)">
            <path id="Path_116246" data-name="Path 116246" d="M467.607,227.628a3.227,3.227,0,0,0-1.72-2.854,5.736,5.736,0,0,0-9.409-4.541,8.61,8.61,0,0,1,0,14.79,5.656,5.656,0,0,0,9.409-4.541A3.226,3.226,0,0,0,467.607,227.628Z" transform="translate(-456.477 -219.018)" fill="#8d59f4"/>
          </g>
          <g id="Group_501" data-name="Group 501">
            <path id="Path_116247" data-name="Path 116247" d="M25.256,227.627a3.227,3.227,0,0,0-1.72-2.854,3.227,3.227,0,0,0-4.036-4.036,3.227,3.227,0,0,0-5.707,0,3.227,3.227,0,0,0-4.036,4.036,3.227,3.227,0,0,0,0,5.707,3.227,3.227,0,0,0,4.036,4.036,3.227,3.227,0,0,0,5.707,0,3.227,3.227,0,0,0,4.036-4.036A3.227,3.227,0,0,0,25.256,227.627Z" transform="translate(-8.036 -219.017)" fill="#a477fc"/>
          </g>
          <g id="Group_502" data-name="Group 502" transform="translate(6.09 0)">
            <path id="Path_116248" data-name="Path 116248" d="M45.149,227.628a3.227,3.227,0,0,0-1.72-2.854,3.227,3.227,0,0,0-4.036-4.036,3.225,3.225,0,0,0-5.374-.506,8.61,8.61,0,0,1,0,14.79,3.225,3.225,0,0,0,5.374-.506,3.227,3.227,0,0,0,4.036-4.036A3.226,3.226,0,0,0,45.149,227.628Z" transform="translate(-34.019 -219.018)" fill="#8d59f4"/>
          </g>
        </g>
        <g id="Group_504" data-name="Group 504" transform="translate(43.099 0)">
          <path id="Path_116249" data-name="Path 116249" d="M217.69,32.071a6.335,6.335,0,0,0-3.377-5.6,6.335,6.335,0,0,0-7.923-7.922,6.335,6.335,0,0,0-11.2,0,6.335,6.335,0,0,0-7.922,7.922,6.335,6.335,0,0,0,0,11.2,6.335,6.335,0,0,0,7.922,7.922,6.335,6.335,0,0,0,11.2,0,6.335,6.335,0,0,0,7.923-7.922A6.335,6.335,0,0,0,217.69,32.071Z" transform="translate(-183.887 -15.17)" fill="#d1be68"/>
        </g>
        <g id="Group_505" data-name="Group 505" transform="translate(53.36 10.262)">
          <circle id="Ellipse_24" data-name="Ellipse 24" cx="6.64" cy="6.64" r="6.64" transform="translate(0 0)" fill="#a477fc"/>
        </g>
        <g id="Group_506" data-name="Group 506" transform="translate(57.525 10.262)">
          <path id="Path_116250" data-name="Path 116250" d="M247.916,58.953a6.615,6.615,0,0,0-2.475.479,6.64,6.64,0,0,1,0,12.323,6.64,6.64,0,1,0,2.475-12.8Z" transform="translate(-245.441 -58.953)" fill="#a477fc"/>
        </g>
      </g>
      <g id="pyre" transform="translate(34.831 69.645)">
        <g id="Group_508" data-name="Group 508" transform="translate(0 26.832)">
          <path id="Path_116251" data-name="Path 116251" d="M112.941,272.828H81.259a1.362,1.362,0,0,0-1.362,1.354l-.031,5.566h34.48v-5.514A1.405,1.405,0,0,0,112.941,272.828Z" transform="translate(-72.019 -272.828)" fill="#bc705d"/>
          <path id="Path_116252" data-name="Path 116252" d="M272.094,272.828H256.379v6.92H273.5v-5.514A1.405,1.405,0,0,0,272.094,272.828Z" transform="translate(-231.172 -272.828)" fill="#8c4537"/>
          <path id="Path_116253" data-name="Path 116253" d="M89.522,341.321H52.041a1.362,1.362,0,0,0-1.362,1.354l-.031,5.566h40.28v-5.514A1.405,1.405,0,0,0,89.522,341.321Z" transform="translate(-45.675 -334.585)" fill="#fce677"/>
          <path id="Path_116254" data-name="Path 116254" d="M274.887,341.32H256.232v6.92h20.06v-5.514A1.405,1.405,0,0,0,274.887,341.32Z" transform="translate(-231.04 -334.584)" fill="#e8d471"/>
          <path id="Path_116255" data-name="Path 116255" d="M49.072,407.594H1.429a1.348,1.348,0,0,0-1.348,1.348v7.573a1.348,1.348,0,0,0,1.348,1.348H49.072a1.348,1.348,0,0,0,1.348-1.348v-7.573A1.348,1.348,0,0,0,49.072,407.594Z" transform="translate(-0.081 -394.34)" fill="#8c4537"/>
          <path id="Path_116256" data-name="Path 116256" d="M280.031,407.594h-23.8v10.268h23.8a1.348,1.348,0,0,0,1.348-1.348v-7.573A1.348,1.348,0,0,0,280.031,407.594Z" transform="translate(-231.04 -394.34)" fill="#4c160d"/>
          <g id="Group_507" data-name="Group 507" transform="translate(3.157 16.907)">
            <circle id="Ellipse_25" data-name="Ellipse 25" cx="1.562" cy="1.562" r="1.562" fill="#bc705d"/>
            <circle id="Ellipse_26" data-name="Ellipse 26" cx="1.562" cy="1.562" r="1.562" transform="translate(6.778)" fill="#bc705d"/>
            <circle id="Ellipse_27" data-name="Ellipse 27" cx="1.562" cy="1.562" r="1.562" transform="translate(13.556)" fill="#bc705d"/>
            <circle id="Ellipse_28" data-name="Ellipse 28" cx="1.562" cy="1.562" r="1.562" transform="translate(20.453)" fill="#bc705d"/>
          </g>
          <circle id="Ellipse_29" data-name="Ellipse 29" cx="1.562" cy="1.562" r="1.562" transform="translate(30.269 16.907)" fill="#8c4537"/>
          <circle id="Ellipse_30" data-name="Ellipse 30" cx="1.562" cy="1.562" r="1.562" transform="translate(37.047 16.907)" fill="#8c4537"/>
          <circle id="Ellipse_31" data-name="Ellipse 31" cx="1.562" cy="1.562" r="1.562" transform="translate(43.825 16.907)" fill="#8c4537"/>
          <path id="Path_116257" data-name="Path 116257" d="M256.232,444.734v3.122a1.561,1.561,0,0,0,0-3.122Z" transform="translate(-231.04 -427.827)" fill="#8c4537"/>
        </g>
        <g id="Group_509" data-name="Group 509" transform="translate(15.309 0)">
          <path id="Path_116258" data-name="Path 116258" d="M175.444,17.4v-.008a10.211,10.211,0,0,0-.672-3.094c-.005-.014-.011-.029-.016-.043-.021-.052-2.128-5.19-1.142-8.014a.814.814,0,0,0-.8-1.081,5.475,5.475,0,0,0-3.108,1.46A18.013,18.013,0,0,1,168.116.762a.814.814,0,0,0-1.233-.643,14.482,14.482,0,0,0-4.956,4.729,11.7,11.7,0,0,0-1.672,4.862,12.806,12.806,0,0,0,0,2.813.5.5,0,0,1-.68.512l-2.095-.857a.843.843,0,0,0-.451-.058.815.815,0,0,0-.656.579,17.459,17.459,0,0,0-.435,1.868,12.856,12.856,0,0,0,.423,6.147,10.727,10.727,0,0,0,3.184,4.873,9.125,9.125,0,0,0,6.031,2.2,11.955,11.955,0,0,0,3.875-.681,8.495,8.495,0,0,0,4.828-4.139,10.644,10.644,0,0,0,1.167-5.566Z" transform="translate(-155.744 -0.001)" fill="#ff6b6b"/>
          <path id="Path_116259" data-name="Path 116259" d="M266.276,17.387a10.211,10.211,0,0,0-.672-3.094q-.008-.022-.016-.043c-.021-.052-2.128-5.19-1.142-8.014a.814.814,0,0,0-.8-1.081A5.2,5.2,0,0,0,261.055,6.2a.54.54,0,0,1-.812-.227,18.262,18.262,0,0,1-1.295-5.21.814.814,0,0,0-1.233-.643q-.645.39-1.231.814V27.781a11.993,11.993,0,0,0,3.8-.68,8.495,8.495,0,0,0,4.828-4.139,10.643,10.643,0,0,0,1.168-5.567Z" transform="translate(-246.576 -0.001)" fill="#ff3d7d"/>
          <path id="Path_116260" data-name="Path 116260" d="M210.163,140.14a.814.814,0,0,0-1.487.513c.1,1.3-.033,5.125-1.842,5.621a2.559,2.559,0,0,1-2.441-.365.793.793,0,0,0-.781-.231.814.814,0,0,0-.586.59c-.015.057-.151.567-.209.9a5.909,5.909,0,0,0,1.821,5.521,4.658,4.658,0,0,0,3.077,1.125,6,6,0,0,0,1.945-.341,5.027,5.027,0,0,0,2.653-2.25,6.053,6.053,0,0,0,.884-2.956C213.218,145.809,212.282,143.3,210.163,140.14Z" transform="translate(-198.1 -126.032)" fill="#ffeb00"/>
          <path id="Path_116261" data-name="Path 116261" d="M257.7,139.824a.814.814,0,0,0-.546.83,10.16,10.16,0,0,1-.668,4.514v8.637a6.142,6.142,0,0,0,1.653-.332,5.028,5.028,0,0,0,2.653-2.25,6.053,6.053,0,0,0,.884-2.956c.02-2.458-.916-4.964-3.035-8.127A.813.813,0,0,0,257.7,139.824Z" transform="translate(-246.575 -126.032)" fill="#ffb454"/>
        </g>
      </g>
    </g>
  </g>
</svg>
